<svg fill="none" height="32" viewBox="0 0 32 32" width="32" xmlns="http://www.w3.org/2000/svg"><path d="m27 0h-22c-2.76142 0-5 2.23858-5 5v22c0 2.7614 2.23858 5 5 5h22c2.7614 0 5-2.2386 5-5v-22c0-2.76142-2.2386-5-5-5z" fill="#ea4c89"/><path d="m16 8c-4.416 0-8 3.584-8 8s3.584 8 8 8c4.4 0 8-3.584 8-8s-3.6-8-8-8zm5.28 3.68c.96 1.168 1.52 2.64 1.552 4.256-.224-.048-2.48-.496-4.752-.224-.048-.112-.096-.24-.144-.352-.144-.336-.288-.672-.448-.992 2.496-1.008 3.648-2.496 3.792-2.688zm-5.28-2.496c1.728 0 3.328.656 4.528 1.712-.128.176-1.152 1.552-3.584 2.464-1.12-2.064-2.368-3.744-2.544-4 .512-.112 1.04-.176 1.6-.176zm-2.912.64c.176.24 1.392 1.936 2.528 3.952-3.2.848-6.016.832-6.32.832.464-2.128 1.888-3.888 3.792-4.784zm-3.92 6.192c0-.064 0-.144 0-.208.288.016 3.616.048 7.024-.976.192.384.384.768.56 1.168-.08.032-.176.048-.272.08-3.52 1.136-5.392 4.24-5.552 4.496-1.104-1.216-1.76-2.816-1.76-4.56zm6.832 6.816c-1.584 0-3.04-.544-4.192-1.44.128-.256 1.504-2.928 5.36-4.272.016-.016.032-.016.048-.016.96 2.496 1.36 4.576 1.456 5.184-.816.352-1.728.544-2.672.544zm3.808-1.168c-.064-.416-.432-2.416-1.328-4.864 2.144-.336 4.016.224 4.256.288-.304 1.904-1.392 3.552-2.928 4.576z" fill="#fff"/></svg>