<svg fill="none" height="32" viewBox="0 0 32 32" width="32" xmlns="http://www.w3.org/2000/svg"><path d="m27 0h-22c-2.76142 0-5 2.23858-5 5v22c0 2.7614 2.23858 5 5 5h22c2.7614 0 5-2.2386 5-5v-22c0-2.76142-2.2386-5-5-5z" fill="#f00"/><path d="m23.6 12.1c-.2-.7-.7-1.2-1.4-1.4-1.2-.3-6.3-.3-6.3-.3s-5 0-6.29999.3c-.7.2-1.20001.7-1.40001 1.4-.2 1.3-.2 3.9-.2 3.9s0 2.6.3 3.9c.2.7.7 1.2 1.4 1.4 1.2.3 6.3.3 6.3.3s5 0 6.3-.3c.7-.2 1.2-.7 1.4-1.4.3-1.3.3-3.9.3-3.9s0-2.6-.4-3.9zm-9.2 6.3v-4.8l4.2 2.4z" fill="#fff"/></svg>