<svg width="85" height="85" viewBox="0 0 85 85" fill="none" xmlns="http://www.w3.org/2000/svg">
<path d="M35.4167 53.125H14.1667V21.25C14.1667 19.3713 14.9129 17.5697 16.2413 16.2413C17.5697 14.9129 19.3714 14.1666 21.25 14.1666H63.75C65.6286 14.1666 67.4303 14.9129 68.7587 16.2413C70.087 17.5697 70.8333 19.3713 70.8333 21.25V28.3333" stroke="#64748B" stroke-width="3" stroke-linecap="round" stroke-linejoin="round"/>
<path d="M7.08334 63.75H49.5833" stroke="#64748B" stroke-width="3" stroke-linecap="round" stroke-linejoin="round"/>
<path d="M49.5833 32.5834C49.5833 30.2352 51.6977 28.3334 54.3044 28.3334H73.1956C75.8023 28.3334 77.9167 30.2352 77.9167 32.5834V66.5834C77.9167 68.9315 75.8023 70.8334 73.1956 70.8334H54.3044C51.6977 70.8334 49.5833 68.9315 49.5833 66.5834V32.5834Z" stroke="#64748B" stroke-width="3" stroke-linecap="round" stroke-linejoin="round"/>
<path d="M63.75 60.2084H63.785" stroke="#64748B" stroke-width="3" stroke-linecap="round" stroke-linejoin="round"/>
</svg>
