<svg width="203" height="40" viewBox="0 0 203 40" fill="none" xmlns="http://www.w3.org/2000/svg">
<path d="M51.476 6.8H57.344C59.384 6.8 60.872 7.28 61.808 8.24C62.744 9.176 63.212 10.628 63.212 12.596V14.144C63.212 16.76 62.348 18.416 60.62 19.112V19.184C61.58 19.472 62.252 20.06 62.636 20.948C63.044 21.836 63.248 23.024 63.248 24.512V28.94C63.248 29.66 63.272 30.248 63.32 30.704C63.368 31.136 63.488 31.568 63.68 32H59.648C59.504 31.592 59.408 31.208 59.36 30.848C59.312 30.488 59.288 29.84 59.288 28.904V24.296C59.288 23.144 59.096 22.34 58.712 21.884C58.352 21.428 57.716 21.2 56.804 21.2H55.436V32H51.476V6.8ZM56.876 17.6C57.668 17.6 58.256 17.396 58.64 16.988C59.048 16.58 59.252 15.896 59.252 14.936V12.992C59.252 12.08 59.084 11.42 58.748 11.012C58.436 10.604 57.932 10.4 57.236 10.4H55.436V17.6H56.876ZM73.3755 6.8H78.7395L82.8435 32H78.8835L78.1635 26.996V27.068H73.6635L72.9435 32H69.2715L73.3755 6.8ZM77.6955 23.648L75.9315 11.192H75.8595L74.1315 23.648H77.6955ZM94.7744 32.36C92.8544 32.36 91.3904 31.82 90.3824 30.74C89.3744 29.636 88.8704 28.064 88.8704 26.024V6.8H92.8304V26.312C92.8304 27.176 92.9984 27.8 93.3344 28.184C93.6944 28.568 94.1984 28.76 94.8464 28.76C95.4944 28.76 95.9864 28.568 96.3224 28.184C96.6824 27.8 96.8624 27.176 96.8624 26.312V6.8H100.678V26.024C100.678 28.064 100.174 29.636 99.1664 30.74C98.1584 31.82 96.6944 32.36 94.7744 32.36ZM107.819 6.8H111.779V28.4H118.295V32H107.819V6.8Z" fill="#212326"/>
<path d="M124.476 6.8V6.3H123.976V6.8H124.476ZM128.436 6.8H128.936V6.3H128.436V6.8ZM128.436 32V32.5H128.936V32H128.436ZM124.476 32H123.976V32.5H124.476V32ZM124.476 7.3H128.436V6.3H124.476V7.3ZM127.936 6.8V32H128.936V6.8H127.936ZM128.436 31.5H124.476V32.5H128.436V31.5ZM124.976 32V6.8H123.976V32H124.976ZM144.074 31.928L144.558 31.805L144.42 31.258L143.893 31.4617L144.074 31.928ZM136.982 30.704L137.347 30.3626L137.347 30.3626L136.982 30.704ZM136.982 8.096L137.347 8.43744L137.347 8.43744L136.982 8.096ZM145.91 8.096L145.545 8.43744L145.545 8.43744L145.91 8.096ZM146.342 30.164L145.93 29.8803L145.747 30.1453L145.913 30.4212L146.342 30.164ZM146.882 30.632L147.04 30.1577L147.04 30.1577L146.882 30.632ZM148.43 30.74H148.93V30.24H148.43V30.74ZM148.43 34.34V34.84H148.93V34.34H148.43ZM147.386 33.84C146.558 33.84 145.945 33.6554 145.502 33.3328C145.063 33.0134 144.74 32.5212 144.558 31.805L143.589 32.051C143.815 32.9428 144.248 33.6566 144.913 34.1412C145.574 34.6226 146.413 34.84 147.386 34.84V33.84ZM143.893 31.4617C143.22 31.7224 142.408 31.86 141.446 31.86V32.86C142.5 32.86 143.44 32.7096 144.254 32.3943L143.893 31.4617ZM141.446 31.86C139.598 31.86 138.259 31.3384 137.347 30.3626L136.617 31.0454C137.768 32.2776 139.405 32.86 141.446 32.86V31.86ZM137.347 30.3626C136.427 29.3786 135.934 27.9565 135.934 26.024H134.934C134.934 28.1235 135.472 29.8214 136.617 31.0454L137.347 30.3626ZM135.934 26.024V12.776H134.934V26.024H135.934ZM135.934 12.776C135.934 10.8435 136.427 9.42142 137.347 8.43744L136.617 7.75456C135.472 8.97858 134.934 10.6765 134.934 12.776H135.934ZM137.347 8.43744C138.259 7.46161 139.598 6.94 141.446 6.94V5.94C139.405 5.94 137.768 6.52239 136.617 7.75456L137.347 8.43744ZM141.446 6.94C143.293 6.94 144.632 7.46161 145.545 8.43744L146.275 7.75456C145.123 6.52239 143.486 5.94 141.446 5.94V6.94ZM145.545 8.43744C146.464 9.42142 146.958 10.8435 146.958 12.776H147.958C147.958 10.6765 147.419 8.97858 146.275 7.75456L145.545 8.43744ZM146.958 12.776V26.024H147.958V12.776H146.958ZM146.958 26.024C146.958 27.6311 146.602 28.9044 145.93 29.8803L146.754 30.4477C147.569 29.2636 147.958 27.7769 147.958 26.024H146.958ZM145.913 30.4212C146.104 30.7392 146.37 30.9885 146.724 31.1063L147.04 30.1577C146.961 30.1315 146.868 30.0688 146.771 29.9068L145.913 30.4212ZM146.724 31.1063C147.016 31.2038 147.391 31.24 147.818 31.24V30.24C147.428 30.24 147.18 30.2042 147.04 30.1577L146.724 31.1063ZM147.818 31.24H148.43V30.24H147.818V31.24ZM147.93 30.74V34.34H148.93V30.74H147.93ZM148.43 33.84H147.386V34.84H148.43V33.84ZM141.446 29.26C142.235 29.26 142.908 29.0167 143.37 28.4574C143.817 27.9165 143.998 27.1603 143.998 26.276H142.998C142.998 27.0477 142.836 27.5335 142.599 27.8206C142.377 28.0893 142.025 28.26 141.446 28.26V29.26ZM143.998 26.276V12.524H142.998V26.276H143.998ZM143.998 12.524C143.998 11.6397 143.817 10.8835 143.37 10.3426C142.908 9.78335 142.235 9.54 141.446 9.54V10.54C142.025 10.54 142.377 10.7107 142.599 10.9794C142.836 11.2665 142.998 11.7523 142.998 12.524H143.998ZM141.446 9.54C140.657 9.54 139.983 9.78335 139.521 10.3426C139.074 10.8835 138.894 11.6397 138.894 12.524H139.894C139.894 11.7523 140.055 11.2665 140.292 10.9794C140.514 10.7107 140.867 10.54 141.446 10.54V9.54ZM138.894 12.524V26.276H139.894V12.524H138.894ZM138.894 26.276C138.894 27.1603 139.074 27.9165 139.521 28.4574C139.983 29.0167 140.657 29.26 141.446 29.26V28.26C140.867 28.26 140.514 28.0893 140.292 27.8206C140.055 27.5335 139.894 27.0477 139.894 26.276H138.894ZM154.456 6.8V6.3H153.956V6.8H154.456ZM164.896 8.24L164.538 8.58908L164.542 8.59355L164.896 8.24ZM165.652 16.772L165.21 16.538L165.205 16.5484L165.652 16.772ZM163.744 18.536L163.552 18.0745L163.244 18.2027V18.536H163.744ZM163.744 18.608H163.244V18.9656L163.582 19.0812L163.744 18.608ZM165.148 30.488L165.501 30.8416L165.501 30.8416L165.148 30.488ZM154.456 32H153.956V32.5H154.456V32ZM161.728 16.448L161.374 16.0944L161.369 16.0998L161.364 16.1053L161.728 16.448ZM161.836 11.012L161.439 11.3157L161.444 11.3229L161.45 11.3299L161.836 11.012ZM158.416 10.4V9.9H157.916V10.4H158.416ZM158.416 17.06H157.916V17.56H158.416V17.06ZM162.232 27.86L162.597 28.2012L162.603 28.1953L162.608 28.1893L162.232 27.86ZM162.124 21.344L161.741 21.6661L161.751 21.677L161.76 21.6873L162.124 21.344ZM158.416 20.66V20.16H157.916V20.66H158.416ZM158.416 28.4H157.916V28.9H158.416V28.4ZM154.456 7.3H160.432V6.3H154.456V7.3ZM160.432 7.3C162.406 7.3 163.735 7.76593 164.538 8.58905L165.254 7.89095C164.184 6.79407 162.537 6.3 160.432 6.3V7.3ZM164.542 8.59355C165.347 9.39858 165.8 10.6966 165.8 12.596H166.8C166.8 10.5594 166.316 8.95342 165.249 7.88645L164.542 8.59355ZM165.8 12.596V13.604H166.8V12.596H165.8ZM165.8 13.604C165.8 14.8495 165.592 15.8173 165.21 16.5381L166.094 17.0059C166.576 16.0947 166.8 14.9505 166.8 13.604H165.8ZM165.205 16.5484C164.852 17.254 164.308 17.7593 163.552 18.0745L163.936 18.9975C164.908 18.5927 165.636 17.9219 166.099 16.9956L165.205 16.5484ZM163.244 18.536V18.608H164.244V18.536H163.244ZM163.582 19.0812C164.454 19.3789 165.092 19.9062 165.522 20.6708C165.958 21.4477 166.196 22.5006 166.196 23.864H167.196C167.196 22.3954 166.941 21.1563 166.394 20.1812C165.839 19.1938 165.001 18.5091 163.905 18.1348L163.582 19.0812ZM166.196 23.864V26.024H167.196V23.864H166.196ZM166.196 26.024C166.196 27.8809 165.705 29.2241 164.794 30.1344L165.501 30.8416C166.655 29.6879 167.196 28.0551 167.196 26.024H166.196ZM164.794 30.1344C163.911 31.0177 162.571 31.5 160.684 31.5V32.5C162.733 32.5 164.369 31.9743 165.501 30.8416L164.794 30.1344ZM160.684 31.5H154.456V32.5H160.684V31.5ZM154.956 32V6.8H153.956V32H154.956ZM159.964 17.56C160.836 17.56 161.58 17.3348 162.092 16.7907L161.364 16.1053C161.108 16.3772 160.676 16.56 159.964 16.56V17.56ZM162.081 16.8016C162.629 16.2539 162.84 15.4053 162.84 14.396H161.84C161.84 15.3067 161.643 15.8261 161.374 16.0944L162.081 16.8016ZM162.84 14.396V12.992H161.84V14.396H162.84ZM162.84 12.992C162.84 12.0403 162.669 11.2367 162.222 10.6941L161.45 11.3299C161.675 11.6033 161.84 12.1197 161.84 12.992H162.84ZM162.233 10.7083C161.795 10.136 161.116 9.9 160.324 9.9V10.9C160.924 10.9 161.252 11.072 161.439 11.3157L162.233 10.7083ZM160.324 9.9H158.416V10.9H160.324V9.9ZM157.916 10.4V17.06H158.916V10.4H157.916ZM158.416 17.56H159.964V16.56H158.416V17.56ZM160.684 28.9C161.46 28.9 162.133 28.6985 162.597 28.2012L161.866 27.5188C161.659 27.7415 161.3 27.9 160.684 27.9V28.9ZM162.608 28.1893C163.066 27.6655 163.236 26.8634 163.236 25.916H162.236C162.236 26.7926 162.069 27.2865 161.856 27.5307L162.608 28.1893ZM163.236 25.916V23.72H162.236V25.916H163.236ZM163.236 23.72C163.236 22.5451 163.035 21.5808 162.487 21.0007L161.76 21.6873C162.028 21.9712 162.236 22.5909 162.236 23.72H163.236ZM162.506 21.0219C161.986 20.4043 161.161 20.16 160.18 20.16V21.16C161.023 21.16 161.494 21.3717 161.741 21.6661L162.506 21.0219ZM160.18 20.16H158.416V21.16H160.18V20.16ZM157.916 20.66V28.4H158.916V20.66H157.916ZM158.416 28.9H160.684V27.9H158.416V28.9ZM176.391 6.8V6.3H175.965L175.897 6.71963L176.391 6.8ZM181.755 6.8L182.248 6.71963L182.18 6.3H181.755V6.8ZM185.859 32V32.5H186.447L186.352 31.9196L185.859 32ZM181.899 32L181.404 32.0712L181.465 32.5H181.899V32ZM181.179 26.996L181.673 26.9248L180.679 26.996H181.179ZM181.179 27.068V27.568H181.679V27.068H181.179ZM176.679 27.068V26.568H176.246L176.184 26.9958L176.679 27.068ZM175.959 32V32.5H176.391L176.453 32.0722L175.959 32ZM172.287 32L171.793 31.9196L171.699 32.5H172.287V32ZM180.711 23.648V24.148H181.286L181.206 23.5779L180.711 23.648ZM178.947 11.192L179.442 11.1219L179.381 10.692H178.947V11.192ZM178.875 11.192V10.692H178.439L178.379 11.1233L178.875 11.192ZM177.147 23.648L176.651 23.5793L176.572 24.148H177.147V23.648ZM176.391 7.3H181.755V6.3H176.391V7.3ZM181.261 6.88037L185.365 32.0804L186.352 31.9196L182.248 6.71963L181.261 6.88037ZM185.859 31.5H181.899V32.5H185.859V31.5ZM182.393 31.9288L181.673 26.9248L180.684 27.0672L181.404 32.0712L182.393 31.9288ZM180.679 26.996V27.068H181.679V26.996H180.679ZM181.179 26.568H176.679V27.568H181.179V26.568ZM176.184 26.9958L175.464 31.9278L176.453 32.0722L177.173 27.1402L176.184 26.9958ZM175.959 31.5H172.287V32.5H175.959V31.5ZM172.78 32.0804L176.884 6.88037L175.897 6.71963L171.793 31.9196L172.78 32.0804ZM181.206 23.5779L179.442 11.1219L178.451 11.2621L180.215 23.7181L181.206 23.5779ZM178.947 10.692H178.875V11.692H178.947V10.692ZM178.379 11.1233L176.651 23.5793L177.642 23.7167L179.37 11.2607L178.379 11.1233ZM177.147 24.148H180.711V23.148H177.147V24.148ZM192.1 6.8V6.3H191.6V6.8H192.1ZM196.06 6.8H196.56V6.3H196.06V6.8ZM196.06 28.4H195.56V28.9H196.06V28.4ZM202.576 28.4H203.076V27.9H202.576V28.4ZM202.576 32V32.5H203.076V32H202.576ZM192.1 32H191.6V32.5H192.1V32ZM192.1 7.3H196.06V6.3H192.1V7.3ZM195.56 6.8V28.4H196.56V6.8H195.56ZM196.06 28.9H202.576V27.9H196.06V28.9ZM202.076 28.4V32H203.076V28.4H202.076ZM202.576 31.5H192.1V32.5H202.576V31.5ZM192.6 32V6.8H191.6V32H192.6Z" fill="#212326"/>
<g clip-path="url(#clip0_850_34)">
<path d="M17.0116 3L38 24.4726V36H28.2054V28.6165L12.9613 13.0205H9.79459V36H0V3H17.0116ZM28.2054 14.452V3H38V14.452H28.2054Z" fill="#212326"/>
</g>
<defs>
<clipPath id="clip0_850_34">
<rect width="38" height="33" fill="white" transform="translate(0 3)"/>
</clipPath>
</defs>
</svg>
