<?xml version="1.0" encoding="utf-8"?>
<svg width="50px" height="50px" viewBox="0 0 50 50" version="1.1" xmlns:xlink="http://www.w3.org/1999/xlink" xmlns="http://www.w3.org/2000/svg">
  <defs>
    <path d="M50 0L50 0L50 50L0 50L0 0L50 0Z" id="path_1" />
    <path d="M0 0L50 0L50 50L0 50L0 0Z" id="path_2" />
    <clipPath id="clip_1">
      <use xlink:href="#path_1" clip-rule="evenodd" fill-rule="evenodd" />
    </clipPath>
    <clipPath id="clip_2">
      <use xlink:href="#path_2" clip-rule="evenodd" fill-rule="evenodd" />
    </clipPath>
  </defs>
  <g id="ic_bun">
    <path d="M50 0L50 0L50 50L0 50L0 0L50 0Z" id="ic_bun" fill="none" stroke="none" />
    <g id="Mask-Group" clip-path="url(#clip_1)">
      <path d="M0 0L50 0L50 50L0 50L0 0Z" id="Rectangle" fill="none" fill-rule="evenodd" stroke="none" />
      <g clip-path="url(#clip_2)">
        <g id="Group" transform="translate(0.31251913 4.207422)">
          <path d="M44.1187 12.1984C44.0176 12.0948 43.9133 11.9943 43.8062 11.8969C43.7 11.8008 43.6 11.6922 43.4937 11.5957C43.3875 11.4992 43.2875 11.3906 43.1812 11.2945C43.075 11.198 42.975 11.0895 42.8687 10.993C42.7625 10.8965 42.6625 10.7883 42.5562 10.6918C42.45 10.5953 42.35 10.4867 42.2437 10.3902C42.1375 10.2937 42.0375 10.1855 41.9312 10.0891C45.0312 13.0266 46.8074 17.0234 46.875 21.2145C46.875 31.2008 36.3625 39.325 23.4375 39.325C16.2 39.325 9.72502 36.7758 5.41877 32.7797L5.73127 33.0812L6.04377 33.3824L6.35627 33.684L6.66877 33.9852L6.98127 34.2867L7.29377 34.5879L7.60627 34.8891C11.9063 39.0539 18.525 41.7355 25.9375 41.7355C38.8625 41.7355 49.375 33.6117 49.375 23.6555C49.375 19.4004 47.475 15.3684 44.1187 12.1984L44.1187 12.1984Z" id="Shape" fill="#000000" stroke="none" />
          <path d="M45.3125 21.2145C45.3125 30.3812 35.5187 37.8121 23.4375 37.8121C11.3562 37.8121 1.5625 30.3812 1.5625 21.2145C1.5625 15.5309 5.31252 10.5109 11.075 7.53359C16.8375 4.55625 20.425 1.50664 23.4375 1.50664C26.45 1.50664 29.025 3.9957 35.8 7.53398C41.5625 10.5102 45.3125 15.5309 45.3125 21.2145L45.3125 21.2145Z" id="Shape" fill="#FBF0DF" stroke="none" />
          <path d="M45.3125 21.2145C45.3094 20.0356 45.141 18.863 44.8125 17.7309C43.1062 37.8 17.7187 38.7645 7.73744 32.7621C12.2242 36.1152 17.7609 37.8965 23.4374 37.8121C35.4999 37.8121 45.3125 30.3691 45.3125 21.2145L45.3125 21.2145Z" id="Shape" fill="#F6DECE" stroke="none" />
          <path d="M15.0188 6.43086C17.8125 4.81563 21.525 1.78398 25.175 1.77812C24.6123 1.60285 24.0269 1.51137 23.4375 1.50664C21.925 1.50664 20.3125 2.26055 18.2812 3.39336C17.575 3.79102 16.8438 4.23086 16.0688 4.68906C14.6125 5.55703 12.9437 6.53906 11.0687 7.52148C5.11873 10.6254 1.5625 15.7422 1.5625 21.2145L1.5625 21.9316C5.34998 9.02812 12.2313 8.04609 15.0188 6.43086L15.0188 6.43086Z" id="Shape" fill="#FFFEFC" stroke="none" />
          <path d="M21.6375 3.03164C21.6455 4.45809 21.3353 5.86836 20.7293 7.15976C20.1156 8.46508 19.2247 9.62094 18.1188 10.5469C17.9438 10.6977 18.0813 10.9871 18.3063 10.9023C20.4125 10.1133 23.2563 7.75078 22.0563 2.98359C22.0063 2.71211 21.6375 2.78437 21.6375 3.03164L21.6375 3.03164ZM23.0563 3.03164C23.8183 4.22742 24.3048 5.57773 24.4805 6.98477C24.6543 8.38594 24.5117 9.80664 24.0625 11.1496C23.9875 11.3605 24.2563 11.5414 24.4063 11.3668C25.775 9.6793 26.9688 6.32812 23.3938 2.71211C23.2125 2.55586 22.9313 2.79648 23.0563 3.00742L23.0563 3.03164L23.0563 3.03164ZM24.7813 2.9293C25.9711 3.73871 26.973 4.79445 27.7192 6.025C28.4553 7.24047 28.914 8.60352 29.0625 10.0168C29.0563 10.0676 29.0703 10.1184 29.102 10.1594C29.1348 10.2003 29.1816 10.2277 29.2334 10.2361C29.2852 10.2446 29.3383 10.2335 29.3824 10.2051C29.426 10.1771 29.457 10.1332 29.4688 10.0828C30.0438 7.97969 29.7188 4.39375 24.9875 2.53125C24.7375 2.43516 24.575 2.76055 24.7813 2.90508L24.7813 2.9293L24.7813 2.9293ZM13.2438 9.19687C14.6608 8.79055 15.9786 8.09613 17.1149 7.15703C18.2354 6.23113 19.1464 5.07766 19.7875 3.77305C19.9 3.55586 20.2563 3.64023 20.2 3.88125C19.1188 8.70273 15.5 9.70937 13.25 9.57656C13.0125 9.58281 13.0188 9.26328 13.2438 9.19687L13.2438 9.19687Z" id="Shape" fill="#CCBEA7" fill-rule="evenodd" stroke="none" />
          <path d="M23.4375 39.325C10.5125 39.325 0 31.2008 0 21.2145C0 15.1875 3.86248 9.56484 10.3312 6.1957C12.2062 5.23125 13.8125 4.26094 15.2438 3.41133C16.0313 2.94141 16.775 2.50117 17.4937 2.09141C19.6875 0.837891 21.5625 0 23.4375 0C25.3125 0 26.95 0.723438 29 1.89258C29.625 2.23633 30.25 2.60977 30.9187 3.01953C32.475 3.94766 34.2312 4.99609 36.5437 6.1957C43.0125 9.56484 46.875 15.1816 46.875 21.2145C46.875 31.2008 36.3625 39.325 23.4375 39.325L23.4375 39.325ZM23.4375 1.50703C21.925 1.50703 20.3125 2.26016 18.2812 3.39336C17.575 3.79102 16.8438 4.23086 16.0688 4.68906C14.6125 5.55703 12.9437 6.53906 11.0687 7.52148C5.11873 10.6254 1.5625 15.7422 1.5625 21.2145C1.5625 30.3691 11.375 37.8184 23.4375 37.8184C35.5 37.8184 45.3125 30.3691 45.3125 21.2145C45.3125 15.7418 41.7562 10.6254 35.8 7.53359C33.4375 6.32812 31.5937 5.19531 30.1 4.30312C29.4187 3.89961 28.7937 3.52578 28.225 3.19453C26.3312 2.10937 24.95 1.50703 23.4375 1.50703L23.4375 1.50703Z" id="Shape" fill="#000000" fill-rule="evenodd" stroke="none" />
          <path d="M27.8437 25.6141C27.5629 26.723 26.9238 27.7168 26.0187 28.4527C25.3305 29.0918 24.4529 29.4895 23.5187 29.5855C22.5564 29.5051 21.6482 29.1065 20.9375 28.4527C20.0418 27.7137 19.4117 26.7199 19.1375 25.6141C19.1284 25.5483 19.1351 25.4814 19.157 25.4187C19.179 25.3556 19.2154 25.2984 19.2633 25.2516C19.3126 25.2044 19.3717 25.1687 19.4363 25.1469C19.501 25.1252 19.5697 25.118 19.6375 25.1258L27.35 25.1258C27.4173 25.1189 27.4853 25.1269 27.5492 25.1492C27.6131 25.1714 27.6714 25.2075 27.7199 25.2547C27.7674 25.3006 27.8034 25.3571 27.8249 25.4195C27.8464 25.482 27.8529 25.5486 27.8437 25.6141L27.8437 25.6141Z" id="Shape" fill="#B71422" stroke="none" />
          <path d="M20.9374 28.5008C21.6466 29.1551 22.5516 29.5577 23.5124 29.6461C24.4711 29.5563 25.3737 29.1539 26.0812 28.5008C26.3041 28.3006 26.513 28.0852 26.7062 27.8563C26.3178 27.4326 25.8477 27.0919 25.3242 26.8547C24.7953 26.6148 24.2241 26.482 23.6437 26.4641C23.023 26.4776 22.4143 26.6371 21.8667 26.9297C21.3263 27.2182 20.8637 27.6332 20.5187 28.1395C20.6624 28.2656 20.7874 28.3863 20.9374 28.5008L20.9374 28.5008Z" id="Shape" fill="#FF6164" stroke="none" />
          <path d="M21.0375 28.0246C21.3506 27.6359 21.7471 27.3225 22.1977 27.1078C22.6534 26.8902 23.1513 26.7753 23.6563 26.7711C24.5858 26.7951 25.4747 27.1573 26.1563 27.7898C26.3 27.6391 26.4375 27.4824 26.5688 27.3258C25.7738 26.5953 24.7227 26.1801 23.625 26.1625C23.0398 26.167 22.4624 26.2969 21.9317 26.5434C21.4066 26.7866 20.9414 27.1421 20.5688 27.5848C20.7164 27.7394 20.8731 27.8863 21.0375 28.0246L21.0375 28.0246Z" id="Shape" fill="#000000" stroke="none" />
          <path d="M23.4937 29.9473C22.4593 29.8623 21.4817 29.4386 20.7124 28.7418C19.7449 27.9527 19.064 26.8863 18.7687 25.6984C18.7476 25.593 18.7511 25.4836 18.7792 25.3793C18.8077 25.2745 18.8597 25.1775 18.9312 25.0957C19.0178 24.9953 19.126 24.9159 19.2476 24.8633C19.3704 24.8098 19.5036 24.7842 19.6374 24.7883L27.3499 24.7883C27.4839 24.7855 27.6167 24.8117 27.739 24.8648C27.8605 24.9175 27.9688 24.9963 28.0562 25.0957C28.1273 25.1785 28.1785 25.2754 28.2054 25.3801C28.2328 25.4844 28.2351 25.593 28.2124 25.6984C27.9171 26.8867 27.2359 27.9527 26.2687 28.7418C25.5011 29.4373 24.526 29.861 23.4937 29.9473L23.4937 29.9473ZM19.6374 25.4875C19.5374 25.4875 19.5124 25.5297 19.5062 25.5418C19.7703 26.5723 20.3679 27.4945 21.2124 28.1754C21.8379 28.7657 22.6388 29.136 23.4937 29.2301C24.3465 29.1369 25.1465 28.7711 25.7749 28.1871C26.6167 27.5055 27.2121 26.5832 27.4749 25.5539C27.4611 25.5345 27.4422 25.5192 27.4203 25.5098C27.3981 25.5002 27.3739 25.4967 27.3499 25.4996L19.6374 25.4875L19.6374 25.4875Z" id="Shape" fill="#000000" fill-rule="evenodd" stroke="none" />
          <path d="M32.95 25.9879C34.9695 25.9879 36.6063 25.0594 36.6063 23.9145C36.6063 22.7695 34.9695 21.8414 32.95 21.8414C30.9305 21.8414 29.2938 22.7695 29.2938 23.9145C29.2938 25.0594 30.9305 25.9879 32.95 25.9879L32.95 25.9879ZM14.0313 25.9879C16.0508 25.9879 17.6875 25.0594 17.6875 23.9145C17.6875 22.7695 16.0508 21.8414 14.0313 21.8414C12.0117 21.8414 10.375 22.7695 10.375 23.9145C10.375 25.0594 12.0117 25.9879 14.0313 25.9879L14.0313 25.9879Z" id="Shape" fill="#FEBBD0" fill-rule="evenodd" stroke="none" />
          <path d="M15.75 23.0828C16.4285 23.0848 17.0932 22.8916 17.6649 22.5262C18.2273 22.1674 18.6699 21.6489 18.936 21.0371C19.1972 20.4329 19.2665 19.7629 19.1344 19.118C18.9998 18.4687 18.6719 17.8754 18.1938 17.416C17.7066 16.9481 17.094 16.6319 16.4305 16.5059C15.7626 16.3771 15.0719 16.4421 14.4399 16.6934C13.8153 16.9403 13.2773 17.3657 12.893 17.9164C12.5158 18.4581 12.3133 19.1021 12.3125 19.7621C12.3125 20.6418 12.6746 21.4855 13.3192 22.1078C13.9637 22.7305 14.8379 23.0812 15.75 23.0828L15.75 23.0828ZM31.2313 23.0828C31.9106 23.0883 32.5771 22.898 33.1512 22.5348C33.716 22.1782 34.1615 21.6611 34.4305 21.0496C34.6947 20.4457 34.7668 19.7751 34.6367 19.1289C34.5041 18.4786 34.1775 17.8837 33.7 17.4227C33.2138 16.9529 32.6014 16.6348 31.9375 16.507C31.269 16.3768 30.5773 16.4409 29.9442 16.6918C29.3187 16.9382 28.7797 17.3635 28.3946 17.9145C28.0165 18.4565 27.8134 19.1012 27.8125 19.7621C27.811 20.6391 28.1696 21.4809 28.8106 22.1035C29.4512 22.7258 30.3219 23.0781 31.2313 23.0828L31.2313 23.0828Z" id="Shape" fill="#000000" fill-rule="evenodd" stroke="none" />
          <path d="M14.6875 19.973C14.9425 19.9745 15.1926 19.9025 15.4078 19.7656C15.6215 19.6289 15.7883 19.4348 15.8871 19.207C15.9859 18.98 16.0125 18.7282 15.9633 18.4855C15.9131 18.2414 15.7903 18.0183 15.6109 17.8453C15.428 17.6691 15.1978 17.55 14.9484 17.5023C14.6974 17.4537 14.4377 17.4779 14.2 17.5723C13.9652 17.665 13.7629 17.8247 13.6183 18.0316C13.4765 18.2352 13.4003 18.4773 13.4 18.7254C13.4 19.0551 13.5355 19.3715 13.7765 19.6055C14.0215 19.8407 14.3479 19.9726 14.6875 19.973L14.6875 19.973ZM30.1687 19.973C30.4238 19.9745 30.6738 19.9025 30.889 19.7656C31.1027 19.6289 31.2695 19.4348 31.3683 19.207C31.4672 18.98 31.4938 18.7282 31.4445 18.4855C31.3944 18.2414 31.2715 18.0183 31.0922 17.8453C30.9093 17.6691 30.6791 17.55 30.4297 17.5023C30.1786 17.4537 29.9189 17.4779 29.6812 17.5723C29.4464 17.665 29.2442 17.8247 29.0996 18.0316C28.9577 18.2352 28.8815 18.4773 28.8812 18.7254C28.8812 19.0535 29.0148 19.3676 29.2535 19.6012C29.4918 19.8348 29.816 19.9684 30.1562 19.973L30.1687 19.973L30.1687 19.973Z" id="Shape" fill="#FFFFFF" fill-rule="evenodd" stroke="none" />
        </g>
      </g>
    </g>
  </g>
</svg>