<?xml version="1.0" encoding="utf-8"?>
<svg width="50px" height="50px" viewBox="0 0 50 50" version="1.1" xmlns:xlink="http://www.w3.org/1999/xlink" xmlns="http://www.w3.org/2000/svg">
  <defs>
    <path d="M50 0L50 0L50 50L0 50L0 0L50 0Z" id="path_1" />
    <clipPath id="clip_1">
      <use xlink:href="#path_1" clip-rule="evenodd" fill-rule="evenodd" />
    </clipPath>
  </defs>
  <g id="ic_javascript">
    <path d="M50 0L50 0L50 50L0 50L0 0L50 0Z" id="ic_javascript" fill="none" stroke="none" />
    <g id="Javascript">
      <g id="javascript-icon">
        <path d="M50 0L50 0L50 50L0 50L0 0L50 0Z" id="javascript-icon" fill="none" stroke="none" />
      </g>
      <path d="M9 12L50 12L50 50L9 50L9 12Z" id="Rectangle" fill="#323232" fill-rule="evenodd" stroke="none" />
      <path d="M0 0L0 50L50 50L50 0L0 0L0 0ZM26.4476 42.6052C25.7096 44.1048 24.3008 45.09 22.6684 45.5656C20.16 46.1416 17.7608 45.8132 15.976 44.742C14.7816 44.0092 13.8488 42.8812 13.2156 41.5816L17.0236 39.2496C17.0568 39.2636 17.1568 39.4444 17.2904 39.678C17.776 40.4916 18.1948 41.0676 19.018 41.472C19.8268 41.748 21.6024 41.9244 22.288 40.5012C22.7068 39.7772 22.5736 37.45 22.5736 34.8752C22.5732 30.8292 22.592 26.8 22.592 22.8L27.2756 22.8C27.2756 27.2 27.2996 31.3672 27.2756 35.6608C27.2856 38.2928 27.514 40.6392 26.4476 42.6052L26.4476 42.6052ZM45.8772 41.282C44.2492 46.8508 35.1724 47.0316 31.5452 43.3524C30.7788 42.4864 30.2984 42.034 29.8412 41.0344C31.7688 39.9256 31.7688 39.9256 33.6444 38.8404C34.6632 40.4064 35.6052 41.2676 37.3 41.62C39.5992 41.9008 41.9124 41.1108 41.3936 38.6688C40.8604 36.6744 36.6856 36.1892 33.8444 34.0564C30.96 32.1192 30.284 27.412 32.6544 24.7224C33.4444 23.7276 34.7916 22.9852 36.2052 22.6284L37.6804 22.4376C40.5128 22.3804 42.2832 23.1284 43.5828 24.5796C43.9444 24.946 44.2396 25.3412 44.7916 26.1976C43.2828 27.1592 43.2876 27.15 41.1264 28.5492C40.6648 27.5548 39.8988 26.9308 39.0892 26.6596C37.8324 26.2788 36.2476 26.6928 35.9188 28.0208C35.8048 28.43 35.8284 28.8108 36.0096 29.4868C36.5188 30.648 38.2276 31.1528 39.7604 31.8572C44.1728 33.6468 45.6628 35.5656 46.0292 37.8496C46.382 39.816 45.944 41.0916 45.8772 41.282L45.8772 41.282Z" id="Shape" fill="#F0DB4F" fill-rule="evenodd" stroke="none" />
    </g>
  </g>
</svg>