<?xml version="1.0" encoding="utf-8"?>
<svg width="50px" height="50px" viewBox="0 0 50 50" version="1.1" xmlns:xlink="http://www.w3.org/1999/xlink" xmlns="http://www.w3.org/2000/svg">
  <g id="ic_mongodb">
    <path d="M50 0L50 0L50 50L0 50L0 0L50 0Z" id="ic_mongodb" fill="none" stroke="none" />
    <g id="mongodb-icon">
      <g id="mongodb-icon">
        <path d="M50 0L50 0L50 50L0 50L0 0L50 0Z" id="mongodb-icon" fill="none" stroke="none" />
        <g id="Group" transform="translate(14 1)">
          <path d="M20.096 15.5469C20.723 17.3605 21.1746 19.2121 21.323 21.1313C21.5074 23.5121 21.423 25.8762 20.921 28.218C20.9074 28.2824 20.8785 28.343 20.857 28.4055C20.6996 28.4059 20.539 28.3863 20.3851 28.4102C19.0847 28.6145 17.7855 28.8262 16.4863 29.0367C15.1433 29.2543 13.7984 29.4633 12.4578 29.6957C11.9828 29.7777 11.3949 29.6797 11.2031 30.3367C11.1976 30.3547 11.1429 30.3578 11.1113 30.368L11.1761 26.4418L11.1101 16.9684L11.7359 16.8609C12.7593 16.6934 13.7828 16.5234 14.807 16.3605C16.0292 16.1664 17.2527 15.9777 18.4757 15.7883C19.0152 15.7043 19.5554 15.6273 20.096 15.5469L20.096 15.5469Z" id="Path" fill="#439934" fill-rule="evenodd" stroke="none" />
          <path d="M9.81913 41.8132C9.15897 41.2457 8.47577 40.7031 7.84296 40.1062C4.43788 36.8945 1.94725 33.1144 0.720692 28.557C0.3828 27.3027 0.15741 26.0281 0.0851452 24.732C0.0343636 23.825 -0.0390738 22.9097 0.0249892 22.0074C0.195692 19.6074 0.542568 17.2304 1.24647 14.9187L1.28514 14.8648C1.3535 14.9558 1.45194 15.0363 1.48671 15.139C2.17382 17.1625 2.85585 19.1875 3.53436 21.2136C5.66639 27.5808 7.79569 33.9496 9.93124 40.3152C9.97303 40.4394 10.0812 40.5414 10.159 40.6535L9.81913 41.8132L9.81913 41.8132Z" id="Path" fill="#45A538" fill-rule="evenodd" stroke="none" />
          <path d="M20.0962 15.5469C19.5556 15.6274 19.015 15.7043 18.4755 15.7875C17.2525 15.977 16.0291 16.1656 14.8068 16.3598C13.7826 16.5227 12.7591 16.6926 11.7357 16.8602L11.1099 16.9676L11.1052 16.5594C11.0845 16.2238 11.049 15.8887 11.0451 15.5531C11.0181 13.4133 11.0013 11.2734 10.9748 9.13361C10.9584 7.79415 10.9338 6.45509 10.9064 5.11603C10.8896 4.284 10.8716 3.45157 10.8341 2.62072C10.8138 2.17423 10.742 1.73009 10.7127 1.28361C10.6963 1.02697 10.7189 0.768372 10.724 0.510559C11.0431 1.12892 11.3552 1.75197 11.6834 2.36564C12.2017 3.33595 13.0275 4.05079 13.7709 4.83087C16.7095 7.91368 18.7959 11.4981 20.0963 15.5469L20.0962 15.5469Z" id="Path" fill="#46A037" fill-rule="evenodd" stroke="none" />
          <path d="M11.111 30.3675C11.1426 30.3574 11.1977 30.3543 11.2028 30.3363C11.3946 29.6793 11.9825 29.7773 12.4575 29.6953C13.7981 29.4632 15.143 29.2539 16.486 29.0363C17.7852 28.8257 19.0844 28.614 20.3848 28.4097C20.5387 28.3855 20.6993 28.4054 20.8567 28.405C20.6137 29.2722 20.4223 30.1582 20.1141 31.0015C19.7641 31.9582 19.3407 32.8918 18.8911 33.807C18.218 35.1721 17.3849 36.4523 16.4094 37.6207C15.6598 38.5222 14.8243 39.3554 13.9868 40.1785C13.5239 40.6335 12.9782 41.0042 12.4704 41.4132L12.3387 41.3234L11.8645 40.9179L11.3739 39.8425C11.0387 38.5881 10.8559 37.2978 10.8293 35.9996L10.8383 35.7804L10.9051 34.8328C10.9274 34.5093 10.9571 34.1863 10.9708 33.8621C11.0211 32.6972 11.0649 31.5324 11.111 30.3675L11.111 30.3675Z" id="Path" fill="#409433" fill-rule="evenodd" stroke="none" />
          <path d="M11.111 30.3676C11.0649 31.5324 11.0212 32.6973 10.9715 33.8625C10.9579 34.1867 10.9282 34.5098 10.9059 34.8332L10.6071 34.9461C9.94342 32.9922 9.27936 31.059 8.62975 29.1207C7.55553 25.914 6.4942 22.7023 5.42155 19.4949C4.55339 16.9002 3.67907 14.3076 2.79863 11.7171C2.75762 11.596 2.63965 11.5014 2.55762 11.3944L4.47012 7.87799C4.53574 7.99205 4.62246 8.09869 4.66387 8.22135C5.55704 10.8607 6.44548 13.5018 7.32935 16.1444C8.46841 19.5545 9.60044 22.9674 10.7387 26.378C10.784 26.5143 10.859 26.6401 10.9305 26.7928L11.1922 26.4881L11.127 30.4147L11.111 30.3676Z" id="Path" fill="#4FAA41" fill-rule="evenodd" stroke="none" />
          <path d="M2.56373 11.4121C2.64576 11.5191 2.76334 11.6137 2.80474 11.7348C3.68517 14.3251 4.55949 16.9177 5.42772 19.5124C6.50038 22.7198 7.56171 25.9315 8.63592 29.1381C9.28514 31.076 9.9492 33.0096 10.6133 34.9635L10.9121 34.8506L10.8453 35.7983L10.7848 36.0166C10.6808 37.0541 10.5933 38.094 10.4668 39.1292C10.4031 39.6479 10.268 40.1573 10.1652 40.6709C10.0879 40.5588 9.97928 40.4569 9.93749 40.3327C7.80194 33.9667 5.67264 27.5983 3.54061 21.2311C2.86558 19.2145 2.18618 17.1989 1.50259 15.1848C1.46782 15.0821 1.36977 15.0016 1.30103 14.9106L2.57915 11.4575L2.56373 11.4121Z" id="Path" fill="#4AA73C" fill-rule="evenodd" stroke="none" />
          <path d="M11.1758 26.4414L10.9141 26.7461C10.8426 26.5933 10.7676 26.4672 10.7223 26.3312C9.58437 22.9207 8.45195 19.5078 7.31289 16.0976C6.42902 13.4544 5.54057 10.8134 4.64736 8.17386C4.60635 8.05121 4.51963 7.94418 4.45361 7.83051L6.81885 4.71918C6.89346 4.81879 6.99971 4.90746 7.03838 5.01957C7.69502 6.94183 8.3458 8.86644 8.99268 10.7922C9.59697 12.5907 10.1923 14.3918 10.8036 16.1879C10.8446 16.3082 10.9872 16.3934 11.0825 16.495L11.0872 16.9032C11.1099 20.0602 11.1321 23.2184 11.154 26.3762L11.1758 26.4414Z" id="Path" fill="#57AE47" fill-rule="evenodd" stroke="none" />
          <path d="M11.1052 16.5594C11.0099 16.4578 10.8673 16.3727 10.8263 16.2523C10.215 14.4562 9.61968 12.6551 9.01538 10.8566C8.36851 8.93086 7.71772 7.00664 7.06108 5.08398C7.02241 4.97188 6.91616 4.8832 6.84155 4.78359C7.61069 4.03047 8.35601 3.25039 9.15601 2.53203C9.86733 1.89375 10.4392 1.20938 10.4654 0.200781C10.4666 0.158984 10.4884 0.117187 10.522 0L10.7248 0.510156C10.7197 0.76836 10.6966 1.02656 10.7134 1.2832C10.7427 1.72969 10.8146 2.17383 10.8349 2.62031C10.8724 3.45117 10.8904 4.28359 10.9072 5.11563C10.9341 6.45469 10.9587 7.79375 10.9755 9.1332C11.0017 11.273 11.0189 13.4129 11.0458 15.5527C11.049 15.8891 11.0841 16.2238 11.1052 16.5594L11.1052 16.5594Z" id="Path" fill="#60B24F" fill-rule="evenodd" stroke="none" />
          <path d="M10.1587 40.6535C10.2614 40.1398 10.3966 39.6301 10.4602 39.1117C10.5872 38.0769 10.6743 37.0367 10.7782 35.9992L10.804 35.9953L10.8298 35.9996C10.8564 37.2979 11.0392 38.5882 11.3743 39.8427C11.3056 39.9333 11.2083 40.0141 11.172 40.1165C10.888 40.9173 10.6204 41.7243 10.3349 42.5251C10.2958 42.6345 10.1872 42.7196 10.1106 42.8157L9.81885 41.8134L10.1587 40.6536L10.1587 40.6535Z" id="Path" fill="#A9AA88" fill-rule="evenodd" stroke="none" />
          <path d="M10.1111 42.816C10.1876 42.7199 10.2966 42.6348 10.3353 42.5254C10.6208 41.7246 10.8888 40.918 11.1724 40.1168C11.2087 40.0144 11.3056 39.9336 11.3748 39.843L11.865 40.9187C11.7681 41.0562 11.6345 41.1801 11.5806 41.3332L10.6416 44.0906C10.6029 44.2012 10.4708 44.2793 10.3826 44.3726L10.1111 42.816L10.1111 42.816Z" id="Path" fill="#B6B598" fill-rule="evenodd" stroke="none" />
          <path d="M10.3826 44.3722C10.4712 44.2793 10.6029 44.2008 10.6416 44.0902L11.5806 41.3328C11.6341 41.1801 11.7681 41.0558 11.865 40.9183L12.3396 41.3234C12.1103 41.55 11.983 41.8117 12.0595 42.1426L11.9154 42.6144C11.8498 42.6953 11.7548 42.7656 11.7224 42.8582C11.3947 43.7969 11.0818 44.7406 10.7517 45.6793C10.7099 45.7984 10.5939 45.8918 10.5119 45.9965C10.4693 45.4547 10.4259 44.914 10.3826 44.3722L10.3826 44.3722Z" id="Path" fill="#C2C1A7" fill-rule="evenodd" stroke="none" />
          <path d="M10.5123 45.9965C10.5939 45.8914 10.7099 45.798 10.7521 45.6793C11.0822 44.741 11.3951 43.7973 11.7228 42.8582C11.7552 42.766 11.8498 42.6953 11.9158 42.6144L11.7169 44.7805C11.6638 44.8418 11.5869 44.8953 11.5615 44.9668C11.3369 45.5973 11.1251 46.2324 10.8998 46.8629C10.8533 46.993 10.7642 47.1078 10.6947 47.2293C10.633 47.1484 10.5224 47.0703 10.5173 46.9859C10.4974 46.6574 10.5111 46.3265 10.5123 45.9965L10.5123 45.9965Z" id="Path" fill="#CECDB7" fill-rule="evenodd" stroke="none" />
          <path d="M10.6941 47.2293C10.7636 47.1074 10.8527 46.9926 10.8992 46.8629C11.125 46.2328 11.3363 45.5976 11.5609 44.9668C11.5863 44.8953 11.6636 44.8422 11.7164 44.7805L11.721 46.2023L11.2453 47.4226L10.6941 47.2293L10.6941 47.2293Z" id="Path" fill="#DBDAC7" fill-rule="evenodd" stroke="none" />
          <path d="M11.2454 47.423L11.7211 46.2027L11.8192 47.6464L11.2454 47.423L11.2454 47.423Z" id="Path" fill="#EBE9DC" fill-rule="evenodd" stroke="none" />
          <path d="M12.0594 42.1429C11.9829 41.8121 12.1098 41.55 12.3395 41.3238L12.4712 41.4136L12.0594 42.1429L12.0594 42.1429Z" id="Path" fill="#CECDB7" fill-rule="evenodd" stroke="none" />
          <path d="M10.8296 36L10.8039 35.9957L10.7781 35.9996L10.8386 35.7812L10.8296 36L10.8296 36Z" id="Path" fill="#4FAA41" fill-rule="evenodd" stroke="none" />
        </g>
      </g>
    </g>
  </g>
</svg>