<?xml version="1.0" encoding="utf-8"?>
<svg width="50px" height="50px" viewBox="0 0 50 50" version="1.1" xmlns:xlink="http://www.w3.org/1999/xlink" xmlns="http://www.w3.org/2000/svg">
  <defs>
    <path d="M50 0L50 0L50 50L0 50L0 0L50 0Z" id="path_1" />
    <clipPath id="clip_1">
      <use xlink:href="#path_1" clip-rule="evenodd" fill-rule="evenodd" />
    </clipPath>
  </defs>
  <g id="ic_nodejs">
    <path d="M50 0L50 0L50 50L0 50L0 0L50 0Z" id="ic_nodejs" fill="none" stroke="none" />
    <g id="Node-Js">
      <g id="Node Js">
        <path d="M50 0L50 0L50 50L0 50L0 0L50 0Z" id="Node-Js" fill="none" stroke="none" />
        <path d="M25.0082 50C24.3383 50 23.6741 49.8249 23.0871 49.4865L16.9711 45.8647C16.0572 45.3535 16.503 45.1726 16.8042 45.0687C18.0227 44.6427 18.269 44.5458 19.5692 43.807C19.7058 43.7288 19.8843 43.7568 20.0244 43.8397L24.7234 46.6281C24.8927 46.7203 25.1343 46.7203 25.2907 46.6281L43.6118 36.0523C43.7811 35.9554 43.892 35.7593 43.892 35.5574L43.892 14.4164C43.892 14.2051 43.7822 14.0172 43.6083 13.9121L25.2954 3.34454C25.1261 3.24416 24.9008 3.24416 24.7316 3.34454L6.42096 13.911C6.24355 14.0114 6.13034 14.2086 6.13034 14.4105L6.13034 35.5527C6.13034 35.7547 6.24005 35.9472 6.41513 36.0429L11.4328 38.941C14.157 40.3031 15.8214 38.6983 15.8214 37.0841L15.8214 16.2185C15.8214 15.9209 16.0548 15.6909 16.3536 15.6909L18.674 15.6909C18.9634 15.6909 19.2015 15.9197 19.2015 16.2185L19.2015 37.0946C19.2015 40.7268 17.2208 42.8137 13.7765 42.8137C12.7167 42.8137 11.8822 42.8137 9.55249 41.6676L4.74607 38.8979C3.55788 38.2092 2.82373 36.9242 2.82373 35.5539L2.82373 14.4117C2.82373 13.0356 3.55788 11.7517 4.7449 11.0724L23.0859 0.491964C24.2461 -0.163988 25.7867 -0.163988 26.9387 0.491964L45.2564 11.0771C46.4376 11.7599 47.1764 13.0403 47.1764 14.4164L47.1764 35.5586C47.1764 36.93 46.4376 38.2092 45.2552 38.8979L26.9376 49.4771C26.3505 49.8168 25.6852 49.9907 25.0071 49.9907" id="Path" fill="#21A366" stroke="none" clip-path="url(#clip_1)" />
        <path d="M30.6678 35.4314C22.6517 35.4314 20.9709 31.7513 20.9709 28.6653C20.9709 28.3723 21.2079 28.1377 21.502 28.1377L23.869 28.1377C24.1305 28.1377 24.3511 28.328 24.3919 28.5859C24.7491 30.9973 25.8136 32.2135 30.6608 32.2135C34.5219 32.2135 36.1641 31.3416 36.1641 29.2932C36.1641 28.1144 35.696 27.239 29.6979 26.6519C24.6802 26.157 21.5802 25.0517 21.5802 21.039C21.5802 17.3425 24.6989 15.1412 29.922 15.1412C35.7882 15.1412 38.6957 17.178 39.0622 21.5525C39.0762 21.7043 39.0213 21.8502 38.9198 21.961C38.8194 22.0661 38.677 22.1303 38.5299 22.1303L36.1501 22.1303C35.9026 22.1303 35.6867 21.9564 35.6365 21.7171C35.0634 19.1808 33.678 18.3696 29.9127 18.3696C25.698 18.3696 25.2078 19.8368 25.2078 20.9374C25.2078 22.2715 25.7855 22.6613 31.472 23.4142C37.1036 24.1612 39.7776 25.2163 39.7776 29.1742C39.7776 33.1636 36.4477 35.4524 30.6422 35.4524" id="Path" fill="#21A366" stroke="none" clip-path="url(#clip_1)" />
      </g>
    </g>
  </g>
</svg>