<?xml version="1.0" encoding="utf-8"?>
<svg width="50px" height="50px" viewBox="0 0 50 50" version="1.1" xmlns:xlink="http://www.w3.org/1999/xlink" xmlns="http://www.w3.org/2000/svg">
  <defs>
    <path d="M50 0L50 0L50 50L0 50L0 0L50 0Z" id="path_1" />
    <clipPath id="clip_1">
      <use xlink:href="#path_1" clip-rule="evenodd" fill-rule="evenodd" />
    </clipPath>
  </defs>
  <g id="ic_nuxtjs">
    <path d="M50 0L50 0L50 50L0 50L0 0L50 0Z" id="ic_nuxtjs" fill="none" stroke="none" />
    <g id="nuxt-icon">
      <path d="M50 0L50 0L50 50L0 50L0 0L50 0Z" id="nuxt-icon" fill="none" stroke="none" />
      <path d="M28 41L46.5 41C47.0903 41 47.6553 40.7947 48.1667 40.505C48.6781 40.2153 49.2048 39.8519 49.5 39.3499C49.7952 38.8483 50.0004 38.279 50 37.6998C49.9996 37.1206 49.7956 36.5516 49.5 36.0501L37 14.765C36.705 14.2634 36.3445 13.8996 35.8334 13.61C35.3221 13.3204 34.5902 13.115 34 13.115C33.4098 13.115 32.8445 13.3204 32.3334 13.61C31.8221 13.8996 31.4617 14.2634 31.1666 14.765L28 20.21L21.6666 9.64961C21.3714 9.14806 21.0113 8.61959 20.5 8.33004C19.9887 8.04041 19.4237 8 18.8334 8C18.243 8 17.6779 8.04041 17.1666 8.33004C16.6554 8.61959 16.1286 9.14806 15.8334 9.64961L0.333339 36.0501C0.0378345 36.5516 0.00025996 37.1206 1.25483e-06 37.6998C-0.00025745 38.279 0.0382819 38.8481 0.333339 39.3499C0.6284 39.8514 1.15541 40.2153 1.66667 40.505C2.17794 40.7947 2.74298 41 3.33333 41L15 41C19.6228 41 22.9875 38.9471 25.3334 35.06L31 25.325L34 20.21L43.1667 35.72L31 35.72L28 41L28 41ZM14.8333 35.7199L6.66656 35.7199L18.8333 14.93L24.9999 25.325L20.9152 32.3745C19.3574 34.8966 17.5812 35.7199 14.8333 35.7199L14.8333 35.7199Z" id="Shape" fill="#00DC82" fill-rule="evenodd" stroke="none" clip-path="url(#clip_1)" />
    </g>
  </g>
</svg>