<?xml version="1.0" encoding="utf-8"?>
<svg width="50px" height="50px" viewBox="0 0 50 50" version="1.1" xmlns:xlink="http://www.w3.org/1999/xlink" xmlns="http://www.w3.org/2000/svg">
  <defs>
    <path d="M50 0L50 0L50 50L0 50L0 0L50 0Z" id="path_1" />
    <clipPath id="clip_1">
      <use xlink:href="#path_1" clip-rule="evenodd" fill-rule="evenodd" />
    </clipPath>
  </defs>
  <g id="ic_sass">
    <path d="M50 0L50 0L50 50L0 50L0 0L50 0Z" id="ic_sass" fill="none" stroke="none" />
    <path d="M41.5281 27.0375C39.926 27.0458 38.5385 27.4302 37.376 28.0042C36.951 27.1552 36.5198 26.4083 36.4479 25.8531C36.3635 25.2052 36.2656 24.8177 36.3677 24.0458C36.4698 23.274 36.9167 22.1802 36.9104 22.0979C36.9042 22.0156 36.8104 21.6229 35.8865 21.6156C34.9625 21.6094 34.1719 21.7937 34.0792 22.0375C33.9865 22.2812 33.8083 22.8302 33.6979 23.4031C33.5365 24.2406 31.8531 27.2292 30.8979 28.7917C30.5854 28.1812 30.3198 27.6437 30.2646 27.2187C30.1802 26.5708 30.0823 26.1833 30.1844 25.4115C30.2865 24.6396 30.7333 23.5458 30.7271 23.4635C30.7208 23.3812 30.6271 22.9885 29.7031 22.9812C28.7792 22.975 27.9885 23.1594 27.8958 23.4031C27.8031 23.6469 27.7031 24.2167 27.5146 24.7687C27.325 25.3198 25.0885 30.3042 24.5021 31.5969C24.2031 32.2552 23.9438 32.7844 23.7604 33.1448C23.7594 33.1437 23.7594 33.1427 23.7594 33.1427C23.7594 33.1427 23.7479 33.1667 23.7292 33.2073C23.5719 33.5146 23.4792 33.6844 23.4792 33.6844C23.4792 33.6844 23.4802 33.6865 23.4823 33.6906C23.3573 33.9167 23.224 34.126 23.1583 34.126C23.1125 34.126 23.0198 33.525 23.1781 32.7C23.5115 30.9708 24.3104 28.275 24.3031 28.1812C24.299 28.1333 24.4521 27.6635 23.7813 27.4177C23.1292 27.1792 22.8969 27.5771 22.8375 27.5781C22.7802 27.5792 22.7375 27.7187 22.7375 27.7187C22.7375 27.7187 23.4635 24.6865 21.3521 24.6865C20.0312 24.6865 18.2021 26.1312 17.301 27.4406C16.7323 27.751 15.5146 28.4156 14.224 29.125C13.7281 29.3979 13.2219 29.676 12.7417 29.9406C12.7094 29.9042 12.676 29.8687 12.6427 29.8323C10.0812 27.1 5.34791 25.1677 5.54791 21.4937C5.62083 20.1583 6.08541 16.6417 14.6448 12.3771C21.6562 8.88333 27.2698 9.84479 28.2396 11.975C29.625 15.0198 25.2396 20.6771 17.9583 21.4937C15.1844 21.8052 13.7229 20.7292 13.3594 20.3292C12.9771 19.9073 12.9198 19.8885 12.7771 19.9677C12.5448 20.0969 12.6917 20.4687 12.7771 20.6906C12.9948 21.2562 13.8865 22.2594 15.4073 22.7594C16.7458 23.199 20.0031 23.4396 23.9417 21.9156C28.3542 20.2094 31.799 15.4615 30.7865 11.4937C29.7573 7.45833 23.0656 6.13125 16.7323 8.38125C12.9583 9.72083 8.87812 11.8229 5.94375 14.5667C2.45521 17.8292 1.89896 20.6698 2.12812 21.8562C2.94271 26.0729 8.75417 28.8187 11.0813 30.8531C10.9667 30.9167 10.8583 30.976 10.7604 31.0302C9.59375 31.6073 5.16354 33.926 4.05521 36.375C2.79792 39.1531 4.25521 41.1469 5.21979 41.4156C8.20833 42.2469 11.275 40.751 12.924 38.2927C14.5719 35.8354 14.3708 32.6344 13.6146 31.174C13.6052 31.1562 13.5948 31.1385 13.5854 31.1198C13.8865 30.9417 14.1938 30.7604 14.4979 30.5812C15.0917 30.2323 15.675 29.9073 16.1802 29.6323C15.8969 30.4073 15.6896 31.3375 15.5823 32.6802C15.4552 34.2573 16.1021 36.2958 16.9479 37.0979C17.3208 37.451 17.7688 37.4594 18.0521 37.4594C19.0365 37.4594 19.4854 36.6406 19.9802 35.6719C20.5865 34.4844 21.125 33.101 21.125 33.101C21.125 33.101 20.45 36.8365 22.2896 36.8365C22.9604 36.8365 23.6344 35.9667 23.9354 35.524C23.9365 35.5292 23.9365 35.5312 23.9365 35.5312C23.9365 35.5312 23.9542 35.5021 23.9885 35.4448C24.0583 35.3385 24.0979 35.2708 24.0979 35.2708C24.0979 35.2708 24.099 35.2635 24.101 35.251C24.3708 34.7833 24.9688 33.7167 25.8646 31.9573C27.0229 29.6844 28.1333 26.8365 28.1333 26.8365C28.1333 26.8365 28.2365 27.5323 28.575 28.6844C28.774 29.3615 29.1969 30.1104 29.5313 30.8292C29.2625 31.2021 29.0979 31.4156 29.0979 31.4156C29.0979 31.4156 29.099 31.4198 29.1021 31.4271C28.8875 31.7125 28.6469 32.0198 28.3948 32.3198C27.4802 33.4083 26.3917 34.6521 26.2458 35.0104C26.074 35.4333 26.1146 35.7437 26.4469 35.9948C26.6896 36.1771 27.1208 36.2062 27.5719 36.176C28.3937 36.1208 28.9708 35.9167 29.2563 35.7927C29.701 35.6354 30.2188 35.3885 30.7042 35.0312C31.601 34.3719 32.1417 33.4292 32.0896 32.1792C32.0604 31.4906 31.8417 30.8083 31.5635 30.1646C31.6448 30.0479 31.726 29.9292 31.8083 29.8104C33.2219 27.7437 34.3188 25.4729 34.3188 25.4729C34.3188 25.4729 34.4219 26.1687 34.7604 27.3208C34.9313 27.9031 35.2698 28.5396 35.574 29.1625C34.2448 30.2427 33.4208 31.4979 33.1344 32.3208C32.6052 33.8437 33.0198 34.5333 33.7969 34.6906C34.149 34.7615 34.6469 34.6 35.0208 34.4417C35.4865 34.2875 36.0458 34.0302 36.5687 33.6458C37.4656 32.9865 38.3281 32.0635 38.276 30.8146C38.2521 30.2458 38.0979 29.6812 37.8885 29.1396C39.0156 28.6698 40.474 28.4094 42.3323 28.626C46.3188 29.0917 47.1 31.5802 46.951 32.6219C46.801 33.6635 45.9656 34.2365 45.6854 34.4094C45.4062 34.5823 45.3208 34.6427 45.3437 34.7708C45.3781 34.9573 45.5073 34.951 45.7458 34.9104C46.074 34.8552 47.8385 34.0635 47.9146 32.1406C48.0094 29.6969 45.6708 27.0156 41.5281 27.0375L41.5281 27.0375ZM10.8021 37.3958C9.48125 38.8365 7.6375 39.3802 6.84583 38.9219C5.99167 38.4271 6.33021 36.3062 7.95 34.7771C8.9375 33.8458 10.2125 32.9875 11.0583 32.4594C11.251 32.3438 11.5333 32.174 11.8771 31.9677C11.9344 31.9354 11.9667 31.9177 11.9667 31.9177L11.9656 31.9156C12.0323 31.876 12.1 31.8354 12.1698 31.7927C12.7604 33.9688 12.1885 35.8844 10.8021 37.3958L10.8021 37.3958ZM20.4219 30.8573C19.9625 31.9781 19 34.8469 18.4135 34.6927C17.9104 34.5604 17.6042 32.3802 18.3135 30.2344C18.6698 29.1542 19.4323 27.8635 19.8802 27.3625C20.601 26.5562 21.3948 26.2927 21.5875 26.6198C21.8323 27.0365 20.7104 30.1542 20.4219 30.8573L20.4219 30.8573ZM28.3687 34.649C28.174 34.751 27.9948 34.8146 27.9125 34.7656C27.851 34.7292 27.9927 34.5948 27.9927 34.5948C27.9927 34.5948 28.9865 33.525 29.3781 33.0385C29.6062 32.7552 29.8698 32.4187 30.1573 32.0437C30.1594 32.0812 30.1604 32.1187 30.1604 32.1552C30.1583 33.4365 28.9208 34.301 28.3687 34.649L28.3687 34.649ZM34.4906 33.2531C34.3448 33.15 34.3698 32.8156 34.8479 31.7729C35.0354 31.3635 35.4646 30.675 36.2083 30.0167C36.2948 30.2875 36.3469 30.5469 36.3458 30.7885C36.3365 32.401 35.1865 33.0031 34.4906 33.2531L34.4906 33.2531Z" id="Shape" fill="#F06292" fill-rule="evenodd" stroke="none" clip-path="url(#clip_1)" />
  </g>
</svg>