<?xml version="1.0" encoding="utf-8"?>
<svg width="50px" height="50px" viewBox="0 0 50 50" version="1.1" xmlns:xlink="http://www.w3.org/1999/xlink" xmlns="http://www.w3.org/2000/svg">
  <defs>
    <linearGradient gradientUnits="objectBoundingBox" x1="0.24969295" y1="-0.24637985" x2="0.83436054" y2="0.6445503" id="gradient_1">
      <stop offset="0%" stop-color="#41D1FF" />
      <stop offset="100%" stop-color="#9231BE" />
    </linearGradient>
    <linearGradient gradientUnits="objectBoundingBox" x1="0.40677047" y1="0.06389713" x2="1.0124501" y2="2.3432188" id="gradient_2">
      <stop offset="0%" stop-color="#FED100" />
      <stop offset="100%" stop-color="#E36001" />
    </linearGradient>
    <path d="M50 0L50 0L50 50L0 50L0 0L50 0Z" id="path_1" />
    <clipPath id="clip_1">
      <use xlink:href="#path_1" clip-rule="evenodd" fill-rule="evenodd" />
    </clipPath>
  </defs>
  <g id="ic_vite">
    <path d="M50 0L50 0L50 50L0 50L0 0L50 0Z" id="ic_vite" fill="none" stroke="none" />
    <g id="Vite">
      <g id="Vite">
        <path d="M50 0L50 0L50 50L0 50L0 0L50 0Z" id="Vite" fill="none" stroke="none" />
        <path d="M49.2699 8.11198L26.2037 49.3583C25.727 50.2094 24.5037 50.2152 24.02 49.3676L0.496908 8.11547C-0.0298327 7.19222 0.759698 6.07362 1.8062 6.26083L24.8979 10.3887C25.0456 10.4155 25.1956 10.4143 25.3433 10.3876L47.9513 6.26665C48.9943 6.07595 49.7873 7.18641 49.2699 8.11198L49.2699 8.11198Z" id="Path" fill="url(#gradient_1)" stroke="none" clip-path="url(#clip_1)" />
        <path d="M36.1465 0.0120201L19.2222 3.32828C18.9443 3.38293 18.7384 3.61898 18.721 3.90153L17.6803 21.484C17.6559 21.8979 18.0361 22.22 18.4408 22.1258L23.1524 21.0386C23.5931 20.9375 23.9919 21.3247 23.9012 21.7689L22.5012 28.6235C22.407 29.0851 22.8396 29.4793 23.2907 29.3421L26.2012 28.4584C26.6524 28.3212 27.0861 28.7165 26.9907 29.1793L24.7663 39.9467C24.6268 40.6199 25.5233 40.9874 25.8965 40.4095L26.1465 40.0234L39.9372 12.5015C40.1686 12.041 39.7697 11.5154 39.2639 11.6131L34.4139 12.5492C33.9581 12.6375 33.5709 12.2131 33.6988 11.7666L36.8639 0.79225C36.9918 0.348065 36.6035 -0.0775141 36.1465 0.0120201L36.1465 0.0120201Z" id="Path" fill="url(#gradient_2)" stroke="none" clip-path="url(#clip_1)" />
      </g>
    </g>
  </g>
</svg>