<?xml version="1.0" encoding="utf-8"?>
<svg width="50px" height="50px" viewBox="0 0 50 50" version="1.1" xmlns:xlink="http://www.w3.org/1999/xlink" xmlns="http://www.w3.org/2000/svg">
  <defs>
    <path d="M50 0L50 0L50 50L0 50L0 0L50 0Z" id="path_1" />
    <clipPath id="clip_1">
      <use xlink:href="#path_1" clip-rule="evenodd" fill-rule="evenodd" />
    </clipPath>
  </defs>
  <g id="ic_vuejs">
    <path d="M50 0L50 0L50 50L0 50L0 0L50 0Z" id="ic_vuejs" fill="none" stroke="none" />
    <g id="Vue-Js">
      <g id="Vue Js">
        <path d="M50 0L50 0L50 50L0 50L0 0L50 0Z" id="Vue-Js" fill="none" stroke="none" />
        <path d="M25 14.7077C25 14.7077 18.7503 4 18.7503 4C18.7503 4 0 4 0 4C0 4 25 46.8306 25 46.8306C25 46.8306 50 4 50 4C50 4 31.2497 4 31.2497 4C31.2497 4 25 14.7077 25 14.7077Z" id="Path" fill="#41B883" fill-rule="evenodd" stroke="none" clip-path="url(#clip_1)" />
        <path d="M31.5271 4C31.5271 4 25.2774 14.7077 25.2774 14.7077C25.2774 14.7077 19.0277 4 19.0277 4C19.0277 4 10 4 10 4C10 4 25.2774 30.1743 25.2774 30.1743C25.2774 30.1743 31.0992 20.2 35.5551 12.5659C38.3175 7.83327 40.5549 4 40.5549 4C40.5549 4 31.5271 4 31.5271 4Z" id="Path" fill="#35495E" fill-rule="evenodd" stroke="none" clip-path="url(#clip_1)" />
      </g>
    </g>
  </g>
</svg>