<svg width="128" height="128" viewBox="0 0 128 128" fill="none" xmlns="http://www.w3.org/2000/svg">
<g clip-path="url(#clip0_7_31)">
<path d="M113.744 41.999C113.485 41.7337 113.218 41.4763 112.944 41.227C112.672 40.981 112.416 40.703 112.144 40.456C111.872 40.209 111.616 39.931 111.344 39.685C111.072 39.438 110.816 39.16 110.544 38.913C110.272 38.666 110.016 38.389 109.744 38.142C109.472 37.895 109.216 37.617 108.944 37.37C108.672 37.123 108.416 36.846 108.144 36.599C116.08 44.119 120.627 54.351 120.8 65.08C120.8 90.645 93.8881 111.443 60.8001 111.443C42.2721 111.443 25.6961 104.917 14.6721 94.687L15.4721 95.459L16.2721 96.23L17.0721 97.002L17.8721 97.773L18.6721 98.545L19.4721 99.316L20.2721 100.087C31.2801 110.749 48.2241 117.614 67.2001 117.614C100.288 117.614 127.2 96.817 127.2 71.329C127.2 60.436 122.336 50.114 113.744 41.999Z" fill="black"/>
<path d="M116.8 65.08C116.8 88.547 91.728 107.57 60.8 107.57C29.872 107.57 4.80005 88.547 4.80005 65.08C4.80005 50.53 14.4001 37.679 29.1521 30.057C43.904 22.435 53.088 14.628 60.8 14.628C68.512 14.628 75.104 21 92.448 30.058C107.2 37.677 116.8 50.53 116.8 65.08Z" fill="#FBF0DF"/>
<path d="M116.8 65.08C116.792 62.0621 116.361 59.0603 115.52 56.162C111.152 107.539 46.1599 110.008 20.6079 94.642C32.0939 103.226 46.2679 107.786 60.7999 107.57C91.6799 107.57 116.8 88.516 116.8 65.08Z" fill="#F6DECE"/>
<path d="M39.2481 27.234C46.4001 23.099 55.9041 15.338 65.2481 15.323C63.8075 14.8743 62.3088 14.6401 60.8 14.628C56.928 14.628 52.8 16.558 47.6 19.458C45.792 20.476 43.9201 21.602 41.9361 22.775C38.2081 24.997 33.936 27.511 29.136 30.026C13.904 37.972 4.80005 51.071 4.80005 65.08V66.916C14.496 33.883 32.1121 31.369 39.2481 27.234Z" fill="#FFFEFC"/>
<path d="M56.1921 18.532C56.2126 22.1837 55.4183 25.794 53.8671 29.1C52.296 32.4416 50.0154 35.4006 47.1841 37.771C46.7361 38.157 47.0881 38.898 47.6641 38.681C53.0561 36.661 60.3361 30.613 57.2641 18.409C57.1361 17.714 56.1921 17.899 56.1921 18.532ZM59.8241 18.532C61.7749 21.5932 63.0203 25.05 63.4701 28.652C63.9151 32.239 63.5501 35.876 62.4001 39.314C62.2081 39.854 62.8961 40.317 63.2801 39.87C66.7841 35.55 69.8401 26.971 60.6881 17.714C60.2241 17.314 59.5041 17.93 59.8241 18.47V18.532ZM64.2401 18.27C67.2861 20.3421 69.851 23.0448 71.7611 26.195C73.6457 29.3066 74.8199 32.796 75.2001 36.414C75.1841 36.544 75.2201 36.674 75.3011 36.779C75.3851 36.8839 75.505 36.9539 75.6376 36.9755C75.7702 36.9971 75.9061 36.9688 76.0191 36.896C76.1307 36.8244 76.21 36.7121 76.2401 36.583C77.7121 31.199 76.8801 22.019 64.7681 17.251C64.1281 17.005 63.7121 17.838 64.2401 18.208V18.27ZM34.7041 34.315C38.3316 33.2748 41.7053 31.4971 44.6141 29.093C47.4827 26.7227 49.8149 23.7698 51.4561 20.43C51.7441 19.874 52.6561 20.09 52.5121 20.707C49.7441 33.05 40.4801 35.627 34.7201 35.287C34.1121 35.303 34.1281 34.485 34.7041 34.315Z" fill="#CCBEA7"/>
<path d="M60.8 111.443C27.712 111.443 0.800049 90.645 0.800049 65.08C0.800049 49.651 10.688 35.257 27.248 26.632C32.048 24.163 36.1601 21.679 39.8241 19.504C41.8401 18.301 43.744 17.174 45.584 16.125C51.2 12.916 56 10.771 60.8 10.771C65.6 10.771 69.792 12.623 75.04 15.616C76.64 16.496 78.24 17.452 79.952 18.501C83.936 20.877 88.432 23.561 94.352 26.632C110.912 35.257 120.8 49.636 120.8 65.08C120.8 90.645 93.8881 111.443 60.8 111.443ZM60.8 14.629C56.928 14.629 52.8 16.557 47.6 19.458C45.792 20.476 43.9201 21.602 41.9361 22.775C38.2081 24.997 33.936 27.511 29.136 30.026C13.904 37.972 4.80005 51.071 4.80005 65.08C4.80005 88.516 29.92 107.586 60.8 107.586C91.68 107.586 116.8 88.516 116.8 65.08C116.8 51.07 107.696 37.972 92.448 30.057C86.4 26.971 81.68 24.071 77.856 21.787C76.112 20.754 74.512 19.797 73.056 18.949C68.208 16.171 64.672 14.629 60.8 14.629Z" fill="black"/>
<path d="M72.08 76.343C71.361 79.182 69.725 81.726 67.408 83.61C65.6462 85.246 63.3996 86.264 61.008 86.51C58.5444 86.3041 56.2195 85.2837 54.4 83.61C52.107 81.718 50.494 79.174 49.792 76.343C49.7688 76.1747 49.786 76.0034 49.842 75.843C49.8984 75.6813 49.9915 75.5348 50.114 75.415C50.2403 75.2943 50.3915 75.2029 50.5571 75.1472C50.7227 75.0916 50.8985 75.0731 51.072 75.093H70.816C70.9884 75.0754 71.1625 75.0959 71.3261 75.1529C71.4897 75.2099 71.6389 75.3021 71.763 75.423C71.8846 75.5405 71.9767 75.6851 72.0318 75.845C72.0869 76.0049 72.1034 76.1755 72.08 76.343Z" fill="#B71422"/>
<path d="M54.3999 83.733C56.2153 85.4081 58.5321 86.4386 60.9919 86.665C63.4461 86.4352 65.7567 85.405 67.5679 83.733C68.1386 83.2205 68.6732 82.6692 69.1679 82.083C68.1736 80.9984 66.9701 80.1262 65.6299 79.519C64.276 78.9049 62.8138 78.565 61.3279 78.519C59.739 78.5536 58.1806 78.962 56.7789 79.711C55.3953 80.4495 54.2112 81.5121 53.3279 82.808C53.6959 83.131 54.0159 83.44 54.3999 83.733Z" fill="#FF6164"/>
<path d="M54.6561 82.514C55.4575 81.5188 56.4725 80.7167 57.6261 80.167C58.7927 79.61 60.0673 79.3157 61.3601 79.305C63.7397 79.3665 66.0152 80.2938 67.7601 81.913C68.1281 81.527 68.4801 81.126 68.8161 80.725C66.7811 78.855 64.0901 77.792 61.2801 77.747C59.782 77.7586 58.3038 78.0911 56.9451 78.722C55.601 79.3448 54.41 80.2548 53.4561 81.388C53.8341 81.784 54.2351 82.16 54.6561 82.514Z" fill="black"/>
<path d="M60.9439 87.436C58.2958 87.2185 55.7932 86.1338 53.8239 84.35C51.3469 82.33 49.6039 79.6 48.8479 76.559C48.7939 76.289 48.8029 76.009 48.8749 75.742C48.9478 75.4736 49.0808 75.2253 49.2639 75.016C49.4856 74.7591 49.7625 74.5557 50.0739 74.421C50.3883 74.284 50.7292 74.2185 51.0719 74.229H70.8159C71.1589 74.222 71.4989 74.289 71.8119 74.425C72.1228 74.5598 72.4001 74.7616 72.6239 75.016C72.8059 75.228 72.9369 75.476 73.0059 75.744C73.0759 76.011 73.0819 76.289 73.0239 76.559C72.2679 79.601 70.5239 82.33 68.0479 84.35C66.0829 86.1306 63.5865 87.2151 60.9439 87.436ZM51.0719 76.019C50.8159 76.019 50.7519 76.127 50.7359 76.158C51.4119 78.796 52.9419 81.157 55.1039 82.9C56.7052 84.4112 58.7554 85.3591 60.9439 85.6C63.1272 85.3615 65.1752 84.4251 66.7839 82.93C68.9389 81.185 70.4629 78.824 71.1359 76.189C71.1005 76.1392 71.0521 76.1001 70.9959 76.076C70.9393 76.0515 70.8772 76.0426 70.8159 76.05L51.0719 76.019Z" fill="black"/>
<path d="M85.1521 77.3C90.3221 77.3 94.5121 74.923 94.5121 71.992C94.5121 69.061 90.3221 66.685 85.1521 66.685C79.9821 66.685 75.7921 69.061 75.7921 71.992C75.7921 74.923 79.9821 77.3 85.1521 77.3ZM36.7201 77.3C41.8901 77.3 46.0801 74.923 46.0801 71.992C46.0801 69.061 41.8901 66.685 36.7201 66.685C31.5501 66.685 27.3601 69.061 27.3601 71.992C27.3601 74.923 31.5501 77.3 36.7201 77.3Z" fill="#FEBBD0"/>
<path d="M41.1201 69.863C42.8569 69.8681 44.5586 69.3735 46.0221 68.438C47.462 67.5196 48.5951 66.1923 49.2761 64.626C49.945 63.0791 50.1224 61.364 49.7841 59.713C49.4395 58.0509 48.6 56.532 47.3761 55.356C46.129 54.1582 44.5608 53.3487 42.8621 53.026C41.1524 52.6963 39.3841 52.8628 37.7661 53.506C36.1673 54.1382 34.79 55.2271 33.8061 56.637C32.8406 58.0237 32.3221 59.6723 32.3201 61.362C32.3201 63.614 33.2471 65.774 34.8971 67.367C36.5471 68.961 38.7851 69.859 41.1201 69.863ZM80.7521 69.863C82.4911 69.8771 84.1975 69.39 85.6671 68.46C87.1131 67.5472 88.2536 66.2233 88.9421 64.658C89.6186 63.112 89.803 61.3953 89.4701 59.741C89.1305 58.0761 88.2944 56.5532 87.0721 55.373C85.8273 54.1705 84.2596 53.3561 82.5601 53.029C80.8488 52.6957 79.0779 52.8598 77.4571 53.502C75.8559 54.1328 74.4761 55.2215 73.4901 56.632C72.5222 58.0196 72.0023 59.6702 72.0001 61.362C71.9961 63.607 72.9141 65.762 74.5551 67.356C76.1951 68.949 78.4241 69.851 80.7521 69.863Z" fill="black"/>
<path d="M38.4 61.902C39.0529 61.9057 39.6931 61.7214 40.244 61.371C40.791 61.021 41.218 60.524 41.471 59.941C41.724 59.3599 41.7921 58.7151 41.666 58.094C41.5377 57.4691 41.2232 56.8978 40.764 56.455C40.2958 56.004 39.7065 55.6989 39.068 55.577C38.4254 55.4524 37.7605 55.5145 37.152 55.756C36.551 55.9933 36.0331 56.4023 35.663 56.932C35.2998 57.4531 35.1048 58.0728 35.104 58.708C35.104 59.552 35.451 60.362 36.068 60.961C36.6952 61.5631 37.5306 61.9008 38.4 61.902ZM78.032 61.902C78.6849 61.9057 79.3251 61.7214 79.876 61.371C80.423 61.021 80.85 60.524 81.103 59.941C81.356 59.3599 81.4241 58.7151 81.298 58.094C81.1697 57.4691 80.8552 56.8978 80.396 56.455C79.9278 56.004 79.3385 55.6989 78.7 55.577C78.0573 55.4524 77.3924 55.5145 76.784 55.756C76.1829 55.9933 75.6651 56.4023 75.295 56.932C74.9318 57.4531 74.7368 58.0728 74.736 58.708C74.736 59.548 75.078 60.352 75.689 60.95C76.299 61.548 77.129 61.89 78 61.902H78.032Z" fill="white"/>
</g>
<defs>
<clipPath id="clip0_7_31">
<rect width="128" height="128" fill="white"/>
</clipPath>
</defs>
</svg>
