<svg width="127" height="128" viewBox="0 0 127 128" fill="none" xmlns="http://www.w3.org/2000/svg">
<path d="M16.8394 115.205L6.56812 0H119.432L109.15 115.187L62.9311 128L16.8394 115.205Z" fill="#264DE4"/>
<path d="M100.347 107.852L109.134 9.41949H63V118.206L100.347 107.852Z" fill="#2965F1"/>
<path d="M30.1151 52.1475L31.3813 66.2768H63.0001V52.1475H30.1151ZM28.8548 37.6788H63.0001V23.5493H27.5703L28.8548 37.6788ZM63.0001 88.843L62.9381 88.8595L47.2021 84.6105L46.1963 73.3415H32.0123L33.9921 95.5267L62.9351 103.562L63.0001 103.544V88.843Z" fill="#EBEBEB"/>
<path d="M62.9512 52.1475V66.2768H80.3499L78.7099 84.6015L62.9512 88.8548V103.555L91.9172 95.5267L92.1297 93.1395L95.4497 55.9415L95.7947 52.1475L98.3454 23.5493H62.9512V37.6788H82.8609L81.5749 52.1475H62.9512Z" fill="white"/>
</svg>
