<?xml version="1.0" encoding="utf-8"?>
<svg width="50px" height="50px" viewBox="0 0 50 50" version="1.1" xmlns:xlink="http://www.w3.org/1999/xlink" xmlns="http://www.w3.org/2000/svg">
  <defs>
    <path d="M50 0L50 0L50 50L0 50L0 0L50 0Z" id="path_1" />
    <clipPath id="clip_1">
      <use xlink:href="#path_1" clip-rule="evenodd" fill-rule="evenodd" />
    </clipPath>
  </defs>
  <g id="ic_mysql">
    <path d="M50 0L50 0L50 50L0 50L0 0L50 0Z" id="ic_mysql" fill="none" stroke="none" />
    <g id="Group" clip-path="url(#clip_1)">
      <g id="Mysql Logo">
        <path d="M50 0L50 0L50 50L0 50L0 0L50 0Z" id="Mysql-Logo" fill="none" stroke="none" />
        <path d="M0.00208333 36.501L2.00208 36.501L2.00208 29.1208L4.78021 35.4302C5.12292 36.2167 5.59167 36.4948 6.51146 36.4948C7.43125 36.4948 7.88125 36.2167 8.22396 35.4302L11.0021 29.2823L11.0021 36.501L13.0021 36.501L13.0021 28.9406C13.0021 28.2146 12.7135 27.8625 12.1177 27.6813C10.6937 27.2333 9.7375 27.6198 9.30521 28.5896L6.45625 35.0063L3.69687 28.5896C3.28229 27.6208 2.30937 27.2333 0.884375 27.6813C0.288542 27.8625 0 28.2135 0 28.9396L0 36.5L0.00208333 36.5L0.00208333 36.501Z" id="Shape" fill="#00796B" stroke="none" clip-path="url(#clip_1)" />
        <path d="M14.001 30.501L16.001 30.501L16.001 34.725C15.9854 34.9333 16.0677 35.4865 17.0323 35.501C17.524 35.5094 19.9708 35.501 20.001 35.501L20.001 30.501L22.001 30.501C22.0094 30.501 22.001 36.7177 22.001 36.7437C22.0115 38.2771 20.0969 38.475 19.2167 38.501L14.0021 38.501L14.0021 37.501C14.0125 37.501 18.9885 37.5021 19.0031 37.501C20.1365 37.3812 20.0021 36.7573 20.0021 36.5677L20.0021 36.501L16.8646 36.501C15.125 36.4854 14.0156 35.7188 14.0031 34.8448C14.001 34.7635 14.0406 30.5385 14.001 30.501L14.001 30.501Z" id="Shape" fill="#00796B" stroke="none" clip-path="url(#clip_1)" />
        <path d="M23.001 36.501L28.0083 36.501C28.6646 36.501 29.3021 36.3635 29.8083 36.126C30.6521 35.7385 31 35.2146 31 34.526L31 33.101C31 31.5635 29.0938 31.501 28 31.501L26 31.501C25.2135 31.501 25.0938 31.026 25 30.501L25 29.501C25.0938 29.101 25.2688 28.5635 25.9615 28.501C26.7667 28.501 30.999 28.501 30.999 28.501L30.999 27.501L26.2427 27.501C25.4563 27.501 22.999 27.5948 22.999 29.501L22.999 30.7375C22.999 31.6125 23.7677 32.325 25.4365 32.5C25.624 32.5125 25.8115 32.525 25.9979 32.525C25.9979 32.525 27.9417 32.4875 27.9979 32.5C29.1229 32.5 28.9979 33.375 28.9979 33.5L28.9979 34.5C28.9979 34.6375 28.9667 35.5 27.9865 35.5C27.9115 35.5 22.9979 35.5 22.9979 35.5L22.9979 36.501L23.001 36.501Z" id="Shape" fill="#F57F17" stroke="none" clip-path="url(#clip_1)" />
        <path d="M42 34.4583C42 35.6656 42.6823 36.3427 44.4917 36.4781C44.6604 36.4896 44.8302 36.5 45 36.5L50 36.5L50 35.5L45.3802 35.5C44.3479 35.5 44 35.0667 44 34.4469L44 27.5L42 27.5L42 34.4583L42 34.4583Z" id="Shape" fill="#F57F17" stroke="none" clip-path="url(#clip_1)" />
        <path d="M31.9833 34.501L31.9833 29.501C31.9833 28.4385 32.5042 27.7052 33.9792 27.501L34.6792 27.501L38.2698 27.501L38.8167 27.501C40.2917 27.7052 40.9833 28.4375 40.9833 29.501L40.9833 34.4823C40.9833 35.3438 40.7594 35.8063 40.0292 36.1063L41.5792 37.5L39.3292 37.5L38.2146 36.5L36.9052 36.5L34.6802 36.5125C34.3583 36.5125 34.0187 36.4677 33.6458 36.3656C32.5271 36.0604 31.9833 35.4729 31.9833 34.501L31.9833 34.501ZM33.9833 34.501C34.0854 34.9875 34.476 35.501 35.1708 35.501L37.1125 35.501L36 34.501L38.2656 34.501L38.8062 35.0031C38.8062 35.0031 39 34.8448 39 34.501C39 34.1573 38.9833 29.501 38.9833 29.501C38.8812 29.049 38.4229 28.501 37.7458 28.501L35.1719 28.501C34.3917 28.501 33.9844 29.0719 33.9844 29.6031L33.9833 34.501L33.9833 34.501L33.9833 34.501Z" id="Shape" fill="#F57F17" fill-rule="evenodd" stroke="none" clip-path="url(#clip_1)" />
        <path d="M48.124 26.4469C47.05 26.4177 46.2302 26.5177 45.5292 26.8125C45.3302 26.8969 45.0125 26.899 44.9792 27.149C45.0885 27.2635 45.1052 27.4354 45.1927 27.576C45.3594 27.8469 45.6427 28.2104 45.8948 28.4C46.1708 28.6083 46.4552 28.8313 46.75 29.0115C47.275 29.3313 47.8615 29.5146 48.3677 29.8354C48.6656 30.024 48.9615 30.2635 49.2531 30.476C49.3969 30.5823 49.4927 30.7458 49.6802 30.8125C49.6802 30.8021 49.6802 30.7927 49.6802 30.7823C49.5823 30.6573 49.5563 30.4854 49.4667 30.3542C49.3344 30.2219 49.2021 30.0896 49.0698 29.9573C48.6823 29.4427 48.1885 28.9896 47.6656 28.6146C47.2479 28.3146 46.3135 27.9094 46.1385 27.424C46.1281 27.4135 46.1187 27.4042 46.1073 27.3927C46.4031 27.3594 46.75 27.2521 47.0229 27.1792C47.4823 27.0563 47.8917 27.0885 48.3656 26.9656C48.5792 26.9042 48.7927 26.8438 49.0063 26.7823C49.0063 26.7417 49.0063 26.701 49.0063 26.6604C48.7667 26.4146 48.5948 26.0896 48.3344 25.8667C47.65 25.2844 46.9042 24.7031 46.1365 24.2177C45.7104 23.949 45.1833 23.774 44.7323 23.5458C44.5802 23.4688 44.3135 23.4292 44.2135 23.3021C43.976 23 43.8479 22.6156 43.6646 22.2646C43.2812 21.5271 42.9042 20.7208 42.5656 19.9448C42.3333 19.4156 42.1823 18.8927 41.8937 18.4177C40.5073 16.1385 39.0146 14.7625 36.7042 13.4104C36.2125 13.1229 35.6198 13.0094 34.9938 12.8604C34.6573 12.8406 34.3219 12.8198 33.9854 12.799C33.7802 12.7125 33.5677 12.4625 33.374 12.3406C32.6083 11.8563 30.6438 10.8042 30.0771 12.1875C29.7188 13.0604 30.6125 13.9125 30.9323 14.3552C31.1563 14.6656 31.4438 15.0135 31.6042 15.3635C31.7094 15.5927 31.7281 15.8229 31.8177 16.0656C32.0396 16.6635 32.3906 17.3448 32.6781 17.8979C32.8229 18.1781 32.9833 18.4719 33.1667 18.7219C33.2792 18.875 33.4719 18.9427 33.5031 19.1802C33.3146 19.4438 33.3042 19.8531 33.1979 20.1885C32.7208 21.6938 32.9011 23.5635 33.5948 24.676C33.8073 25.0177 34.3094 25.751 34.999 25.4698C35.6021 25.224 35.4677 24.4625 35.6396 23.7906C35.6781 23.6385 35.6542 23.5271 35.7313 23.425C35.7313 23.4354 35.7313 23.4448 35.7313 23.4563C35.9146 23.8219 36.0969 24.1896 36.2813 24.5552C36.6885 25.2104 37.4104 25.8948 38.0208 26.3573C38.3375 26.5969 38.5875 27.0115 38.9979 27.151C38.9979 27.1406 38.9979 27.1313 38.9979 27.1198C38.9875 27.1198 38.9781 27.1198 38.9667 27.1198C38.8875 26.9958 38.7625 26.9448 38.6615 26.8448C38.4229 26.6104 38.1563 26.3198 37.9594 26.051C37.4031 25.2958 36.9115 24.4688 36.4636 23.6083C36.25 23.1969 36.0636 22.7448 35.8833 22.326C35.8135 22.1646 35.8146 21.9208 35.6698 21.8375C35.4719 22.1438 35.1823 22.3917 35.0292 22.7531C34.7854 23.3313 34.7531 24.0375 34.6635 24.7677C34.6094 24.7865 34.6333 24.774 34.6021 24.7979C34.1771 24.6948 34.0271 24.2583 33.8688 23.8823C33.4688 22.9323 33.3948 21.4031 33.7469 20.3104C33.8375 20.0271 34.249 19.1365 34.0833 18.875C34.0042 18.6135 33.7417 18.4625 33.5958 18.2635C33.4136 18.0177 33.2333 17.6927 33.1073 17.4083C32.7802 16.6677 32.4698 15.8063 32.125 15.0573C31.9604 14.699 31.6823 14.3375 31.4531 14.0198C31.2 13.6677 30.9156 13.4083 30.7198 12.9823C30.65 12.8313 30.5552 12.5885 30.6583 12.4323C30.6917 12.3271 30.7375 12.2833 30.8417 12.249C31.0188 12.1115 31.5115 12.2938 31.6969 12.3708C32.1865 12.574 32.5948 12.7677 33.0094 13.0427C33.2083 13.175 33.4094 13.4302 33.65 13.501C33.7417 13.501 33.8333 13.501 33.925 13.501C34.3552 13.6 34.8365 13.5323 35.2375 13.6542C35.9479 13.8698 36.5833 14.2052 37.1604 14.5698C38.9208 15.6813 40.3594 17.2625 41.3438 19.15C41.5021 19.4542 41.5708 19.7438 41.7094 20.0656C41.9906 20.7156 42.3458 21.3844 42.625 22.0198C42.9042 22.6542 43.1771 23.2938 43.5719 23.8219C43.7802 24.099 44.5823 24.2479 44.9458 24.4021C45.201 24.5104 45.6198 24.6219 45.8615 24.7677C46.324 25.0469 46.7719 25.3792 47.2042 25.6833C47.425 25.8365 48.0906 26.1708 48.124 26.4469L48.124 26.4469Z" id="Shape" fill="#00796B" stroke="none" clip-path="url(#clip_1)" />
        <path d="M34.4771 14.8156C34.2531 14.8115 34.0948 14.8396 33.9271 14.8771C33.9271 14.8875 33.9271 14.8969 33.9271 14.9083C33.9375 14.9083 33.9469 14.9083 33.9583 14.9083C34.0656 15.1271 34.2531 15.2698 34.3854 15.4583C34.4875 15.6719 34.5885 15.8854 34.6906 16.099C34.701 16.0885 34.7104 16.0792 34.7208 16.0687C34.9094 15.9354 34.9969 15.7229 34.9958 15.3969C34.9198 15.3167 34.9083 15.2167 34.8427 15.1219C34.7552 14.9937 34.5865 14.9219 34.4771 14.8156L34.4771 14.8156Z" id="Shape" fill="#00796B" stroke="none" clip-path="url(#clip_1)" />
      </g>
    </g>
  </g>
</svg>