<?xml version="1.0" encoding="utf-8"?>
<svg width="50px" height="50px" viewBox="0 0 50 50" version="1.1" xmlns:xlink="http://www.w3.org/1999/xlink" xmlns="http://www.w3.org/2000/svg">
  <defs>
    <path d="M50 0L50 0L50 50L0 50L0 0L50 0Z" id="path_1" />
    <clipPath id="clip_1">
      <use xlink:href="#path_1" clip-rule="evenodd" fill-rule="evenodd" />
    </clipPath>
  </defs>
  <g id="ic_prisma">
    <path d="M50 0L50 0L50 50L0 50L0 0L50 0Z" id="ic_prisma" fill="none" stroke="none" />
    <path d="M44.674 37.568L27.405 1.49C26.515 -0.369 23.932 -0.522 22.83 1.219L3.679 31.461C3.266 32.113 3.278 32.947 3.709 33.587L13.356 47.91C13.955 48.799 15.056 49.2 16.085 48.904L43.079 41.129C44.596 40.692 45.357 38.994 44.674 37.568L44.674 37.568ZM40.86 38.865L18.157 45.234C17.631 45.382 17.137 44.916 17.251 44.381L25.3 6.749C25.445 6.071 26.364 5.961 26.664 6.586L41.507 37.467C41.766 38.033 41.459 38.697 40.86 38.865L40.86 38.865Z" id="Shape" fill="#000000" fill-rule="evenodd" stroke="none" clip-path="url(#clip_1)" />
  </g>
</svg>