<?xml version="1.0" encoding="utf-8"?>
<svg width="50px" height="50px" viewBox="0 0 50 50" version="1.1" xmlns:xlink="http://www.w3.org/1999/xlink" xmlns="http://www.w3.org/2000/svg">
  <defs>
    <path d="M50 0L50 0L50 50L0 50L0 0L50 0Z" id="path_1" />
    <clipPath id="clip_1">
      <use xlink:href="#path_1" clip-rule="evenodd" fill-rule="evenodd" />
    </clipPath>
  </defs>
  <g id="ic_reactjs">
    <path d="M50 0L50 0L50 50L0 50L0 0L50 0Z" id="ic_reactjs" fill="none" stroke="none" />
    <g id="React-Native">
      <g id="React Native">
        <path d="M50 0L50 0L50 50L0 50L0 0L50 0Z" id="React-Native" fill="none" stroke="none" />
        <path d="M25.0001 35.4166C11.5626 35.4166 1.04175 30.8333 1.04175 25C1.04175 19.1666 11.5626 14.5833 25.0001 14.5833C38.4376 14.5833 48.9584 19.1666 48.9584 25C48.9584 30.8333 38.4376 35.4166 25.0001 35.4166L25.0001 35.4166ZM25 16.6666C11.875 16.6666 3.125 20.9375 3.125 25C3.125 29.0625 11.875 33.3333 25 33.3333C38.125 33.3333 46.875 29.0625 46.875 25C46.875 20.9375 38.125 16.6666 25 16.6666L25 16.6666Z" id="Shape" fill="#80DEEA" fill-rule="evenodd" stroke="none" clip-path="url(#clip_1)" />
        <path d="M15.7291 46.4583C14.6875 46.4583 13.8541 46.25 13.0208 45.7291C7.91665 42.8125 9.27081 31.4583 15.9375 19.7916L15.9375 19.7916C19.0625 14.375 22.9166 9.79165 26.6666 6.87498C30.7292 3.74998 34.375 2.81248 36.875 4.27081C39.4792 5.72915 40.4167 9.37498 39.7917 14.4791C39.1667 19.2708 37.0833 24.8958 33.9583 30.3125C30.8333 35.7291 26.9792 40.3125 23.2292 43.2291C20.5208 45.3125 17.9166 46.4583 15.7291 46.4583L15.7291 46.4583ZM34.2709 5.625C32.6043 5.625 30.4168 6.5625 28.0209 8.4375C24.4793 11.25 20.8334 15.625 17.8126 20.8333L17.8126 20.8333C11.2501 32.1875 10.6251 41.9792 14.0626 43.9583C15.8334 45 18.7501 44.0625 21.9793 41.5625C25.5209 38.75 29.1668 34.375 32.1876 29.1667C35.2084 23.9583 37.1876 18.6458 37.8126 14.1667C38.3334 10 37.7084 7.08334 35.9376 6.04167C35.4168 5.83333 34.8959 5.625 34.2709 5.625L34.2709 5.625Z" id="Shape" fill="#80DEEA" fill-rule="evenodd" stroke="none" clip-path="url(#clip_1)" />
        <path d="M34.3749 46.4583C29.1666 46.4583 21.6666 40.1042 16.0416 30.2083C9.27075 18.5417 7.91658 7.18751 13.0207 4.27085L13.0207 4.27085C18.1249 1.35418 27.2916 8.12501 34.0624 19.7917C37.1874 25.2083 39.2708 30.8333 39.8958 35.625C40.6249 40.7292 39.5833 44.2708 36.9791 45.8333C36.1458 46.25 35.3124 46.4583 34.3749 46.4583L34.3749 46.4583ZM14.0623 6.04166C10.6248 8.02083 11.2498 17.8125 17.8123 29.1667C24.3748 40.5208 32.4998 45.9375 35.9373 43.9583C37.7082 42.9167 38.3332 40 37.8123 35.8333C37.1873 31.3542 35.2082 26.0417 32.1873 20.8333C25.6248 9.47916 17.4998 4.0625 14.0623 6.04166L14.0623 6.04166L14.0623 6.04166Z" id="Shape" fill="#80DEEA" fill-rule="evenodd" stroke="none" clip-path="url(#clip_1)" />
        <path d="M20.8333 25C20.8333 22.6988 22.6987 20.8333 24.9999 20.8333C27.3011 20.8333 29.1666 22.6988 29.1666 25C29.1666 27.3012 27.3011 29.1666 24.9999 29.1666C22.6987 29.1666 20.8333 27.3012 20.8333 25Z" id="Oval" fill="#80DEEA" fill-rule="evenodd" stroke="none" clip-path="url(#clip_1)" />
      </g>
    </g>
  </g>
</svg>